<?xml version="1.0" encoding="UTF-8"?>
<svg id="Layer_1" data-name="Layer 1" xmlns="http://www.w3.org/2000/svg" xmlns:xlink="http://www.w3.org/1999/xlink" viewBox="0 0 102 102">
  <defs>
    <style>
      .cls-1 {
        fill: #6a6a6a;
      }

      .cls-2 {
        fill: #b7b7b7;
      }

      .cls-3 {
        fill: #9d9d9d;
      }

      .cls-4 {
        fill: #939393;
      }

      .cls-5 {
        fill: #ddd;
      }

      .cls-6 {
        fill: #c5c5c5;
      }

      .cls-7 {
        fill: #cbcbcb;
      }

      .cls-8 {
        fill: #cacaca;
      }

      .cls-9 {
        fill: #9c9c9c;
      }

      .cls-10 {
        fill: silver;
      }

      .cls-11 {
        fill: #4b4b4b;
      }

      .cls-12 {
        fill: #222;
      }

      .cls-13 {
        fill: #8c8c8c;
      }

      .cls-14 {
        fill: #4d4d4d;
      }

      .cls-15 {
        fill: #959595;
      }

      .cls-16 {
        fill: #909090;
      }

      .cls-17 {
        fill: #7c7c7c;
      }

      .cls-18 {
        fill: #ee2971;
      }

      .cls-19 {
        fill: #dedede;
      }

      .cls-20 {
        fill: #6b6b6b;
      }

      .cls-21 {
        fill: #696969;
      }

      .cls-22 {
        fill: #1b1b1b;
      }

      .cls-23 {
        fill: #929292;
      }

      .cls-24 {
        fill: #030303;
      }

      .cls-25 {
        fill: #505050;
      }

      .cls-26 {
        fill: #787878;
      }

      .cls-27 {
        fill: #898989;
      }

      .cls-28 {
        fill: #676767;
      }

      .cls-29 {
        fill: #e5e5e5;
      }

      .cls-30 {
        fill: #212121;
      }

      .cls-31 {
        fill: #0e0e0e;
      }

      .cls-32 {
        fill: none;
      }

      .cls-33 {
        fill: #2e2e2e;
      }

      .cls-34 {
        fill: #161616;
      }

      .cls-35 {
        fill: #141414;
      }

      .cls-36 {
        fill: #e8e8e8;
      }

      .cls-37 {
        fill: #ccc;
      }

      .cls-38 {
        fill: #7b7b7b;
      }

      .cls-39 {
        fill: #6d6d6d;
      }

      .cls-40 {
        fill: #686868;
      }

      .cls-41 {
        fill: #1e1e1e;
      }

      .cls-42 {
        fill: #231f20;
      }

      .cls-43 {
        fill: #ededed;
      }
    </style>
  </defs>
  <rect class="cls-32" x=".3" y=".17" width="101" height="101"/>
  <rect class="cls-18" x="1.56" y="1.55" width="99.75" height="99.62" rx="49.81" ry="49.81"/>
  <g>
    <g>
      <path class="cls-35" d="m34.32,26.89c.12-.77.21-1.55.34-2.31.25-1.54,1.11-2.64,2.51-3.32.94-.46,1.89-.89,2.83-1.33.04-.02.07-.04.11-.07.39-.02.65-.29.94-.51.05.37.09.75.15,1.12.02.12.12.23.22.41-.04-.66-.07-1.22-.1-1.79.25-.17.5-.35.75-.52-.02.58-.05,1.15-.04,1.73,0,.18-.03.44.22.49.11-.89.23-1.77.34-2.65.55-.34,1.09-.68,1.64-1.02-.19.21-.38.41-.57.62l.05.09c.11-.04.24-.05.33-.12.24-.17.47-.36.69-.55.82-.68,1.71-.83,2.72-.48.56.19,1.15.39,1.73.42.55.03,1.1-.16,1.66-.25.16-.03.33-.05.49-.1.86-.24,1.7-.49,2.62-.48.55.01,1.02.15,1.4.53.62.6,1.37.89,2.21.97-.26.13-.51.29-.78.4-.27.1-.56.16-.84.23.15.27.43.38.74.26.43-.17.84-.36,1.27-.55.11-.05.21-.08.32-.12.28.11.55.27.84.31.96.11,1.78.48,2.36,1.24.64.83,1.42,1.49,2.3,2.05.07.04.13.1.2.15-.8-.07-1.48-.4-2.05-.98.14.37.42.64.77.79.55.22,1.13.39,1.7.57.09.03.18.04.28.07.47.43.95.85,1.42,1.28.14.19.28.37.42.56-.4-.08-.8-.23-1.2-.24-1.37,0-2.48-.56-3.33-1.61-.48-.59-.9-1.23-1.35-1.84-.08-.11-.16-.21-.27-.35-.02.09-.04.12-.03.14.64,1.27,1.41,2.43,2.63,3.23.74.49,1.56.75,2.44.73.47-.01.93.03,1.34.27.73,1.26,1.02,2.63.92,4.07-.05.71-.04,1.4.15,2.08-.07.38-.14.76-.21,1.15-.17-.16.14-.46-.28-.6,0,.27-.02.49,0,.71.04.31.1.62.16.93,0,.04.02.09.04.11.7.7.78,1.55.52,2.44-.18.6-.43,1.18-.66,1.79-.09-.25-.15-.44-.22-.63.02-.15.05-.31.07-.46.06-.29.17-.57.17-.86,0-1.27-.1-2.53-.4-3.76-.16-.64-.37-1.27-.57-1.9-.04-.12-.18-.21-.27-.32-.09-.2-.17-.4-.26-.59-.27-1.07-.76-2.03-1.42-2.91-.91-1.2-1.81-2.43-3.01-3.37-.92-.73-1.92-1.28-3.14-1.25-.18,0-.36.08-.55.12-.58.07-1.15.13-1.73.2.21-.08.43-.15.65-.23-.03-.25-.17-.26-.38-.23-.95.15-1.9.29-2.9.44.4-.55,1.2-.9,2.21-1.04-.81-.18-1.53.07-2.11.57-.51.44-1.05.46-1.75.38.4-.39.76-.74,1.12-1.08-.14-.1-.35-.05-.52.09-.26.2-.49.43-.71.67-.2.21-.4.3-.71.27-1.03-.1-2.07-.23-3.09.04-.37.1-.71.32-1.06.49-.14.07-.27.15-.42.23-.01-.81.68-2.37,2.21-3.16,0-.03,0-.06,0-.09-.1.01-.22,0-.31.04-1.27.61-1.93,1.66-2.11,3.03,0,.06-.01.12-.02.21-.12,0-.24.03-.35,0-1.11-.32-2.09.01-3,.61-2.12,1.39-3.4,3.37-4.06,5.78-.42,1.54-.52,3.1-.02,4.65.07.23.19.35.43.32,0,.02.02.04.03.06-.13.09-.25.19-.38.28.02.04.04.08.06.12.14-.07.29-.13.43-.2.03.04.05.08.08.12-.12.11-.25.22-.39.33.26.29.36-.12.54-.09.06.07.11.14.17.22-.21.17-.42.34-.63.51.04.05.08.09.12.14.3-.03.41-.35.65-.47.08.08.16.16.24.24-.27.25-.55.49-.82.74.03.04.07.08.1.12l.88-.71c.06.06.11.13.17.19-.27.27-.55.54-.82.82.03.04.07.07.1.11.31-.25.63-.51.94-.76.11.08.22.15.33.23-.41.34-.83.67-1.24,1.02-.07.06-.08.19-.12.29.09-.04.19-.08.27-.14.44-.33.88-.67,1.32-1.01.1.06.2.12.3.17-.41.36-.86.69-1.21,1.1-.71.84-1.07,1.84-1.1,3-.13,0-.27,0-.4,0-.78.06-1.56.09-2.33.2-.57.09-1.07.38-1.42.91-.05-.04-.12-.06-.15-.11-.38-.67-.77-1.34-1.11-2.03-.42-.86-.48-1.77-.33-2.72.07-.44.03-.94-.1-1.37-.44-1.57-.34-3.07.5-4.49.23-.39.51-.76.71-1.16.15-.31.21-.67.33-1.06-.47.74-.92,1.41-1.34,2.09-.52.84-.82,1.76-.77,2.76.01.23,0,.46,0,.75-.39-.53-.4-1.07-.27-1.6.12-.49.35-.95.53-1.43.07-.19.13-.38.19-.57.13-.28.25-.56.38-.85.15-.4.29-.8.44-1.19.05-.2.09-.4.14-.6.06-.13.15-.26.17-.4Zm-.32,5.03c.05-.5.11-.96.16-1.42-.05,0-.1-.01-.15-.02-.08.39-.18.78-.24,1.18-.18,1.21-.04,2.39.3,3.56.08.27-.04.59-.07.89-.12,1.17.17,2.22.89,3.15.03.04.07.06.15.07-.06-.09-.11-.19-.17-.28-.59-1-.85-2.06-.66-3.22.02-.09.11-.17.2-.32-.26-.93-.41-1.97-.41-3.03,0-.3.09-.44.38-.53,1.01-.32,1.72-1.01,2.18-1.95.04-.09.04-.19.06-.29-.03,0-.07-.02-.1-.03-.5,1.1-1.32,1.84-2.5,2.24Zm4.08-2.78c-.15,1.06-.22,2.14-.38,3.2-.22,1.46-.83,2.74-1.94,3.75.01.03.03.06.04.09.1-.04.22-.06.31-.12.72-.55,1.21-1.28,1.45-2.14.25-.91.43-1.85.57-2.78.19-1.36.31-2.72.46-4.08,0-.03,0-.06-.01-.09-.03,0-.06-.01-.09-.02-.13.73-.29,1.46-.4,2.19Zm-3.18,5.05c.86-.41,1.48-1.07,1.96-1.88.43-.74.67-1.55.76-2.39.02-.15,0-.29-.06-.46-.21,2.08-1.28,3.6-3,4.71.02.03.04.06.07.09.1-.02.2-.03.29-.07Zm12.55-13.64c1.07-1.26,2.42-2.07,4.03-2.49-.76-.42-3.89,1.52-4.03,2.49Zm-1.16-1.28c-.38.56-.59,1.17-.52,1.86.24-1,.67-1.88,1.48-2.59-.28-.04-.63.25-.96.74Zm19.02,5.21c1.43.55,1.84,1.62,1.57,3.04.71-1.18-.11-2.77-1.57-3.04Zm-19.39-6.07c-.4.37-.81,1.62-.69,2.06.23-.68.46-1.35.69-2.06Z"/>
      <path class="cls-24" d="m41.74,35.82c-.45.45-.94.87-1.36,1.35-.52.6-.77,1.33-.89,2.11-.06.43-.04.43.38.47.72.06,1.44.16,2.16.23.09,0,.2.02.28-.02.43-.19.86-.4,1.29-.6.69-.16,1.39-.32,2.08-.47.25-.05.51-.07.77-.11.21,0,.42,0,.64,0,.64,0,1.27,0,1.91,0,.19,0,.38,0,.57,0,.68.09,1.35.18,2.03.26.68.1,1.36.28,2.05.29,1.02.02,2.04-.07,3.05-.12.04,0,.08-.03.11-.04.92-.18,1.84-.33,2.75-.54,1.17-.26,2.35-.38,3.54-.42.8-.03,1.61-.04,2.41-.07.43-.01.85-.05,1.31-.08,0-.17.02-.36.02-.54-.01-.45,0-.9-.04-1.34-.07-.77-.19-1.55-.28-2.32-.02-.14,0-.29.04-.45.3.47.25,1.03.34,1.55.04.43.08.87.13,1.3,0,.06.07.11.11.17.07.19.13.38.22.63.23-.61.49-1.19.66-1.79.26-.89.18-1.74-.52-2.44-.03-.03-.03-.07-.04-.11-.06-.31-.13-.62-.16-.93-.03-.22,0-.44,0-.71.42.14.11.44.28.6.07-.39.14-.77.21-1.15.64-2.04.97-4.06-.47-5.94.02-.02.04-.03.07-.05.2.22.41.44.61.65.09-.5-.11-1.21-.48-1.71-.41-.64-1.05-.89-1.74-1.07-.37-.09-.76-.13-1.14-.2-.09-.02-.19-.04-.28-.07-.57-.19-1.14-.35-1.7-.57-.35-.14-.62-.41-.77-.79.56.58,1.25.91,2.05.98.29.06.58.15.88.19,1.2.16,2.31.49,3.07,1.53.05.1.11.2.16.31.27.56.47,1.14.3,1.78-.04.14-.03.31.02.45.24.74.4,1.51.28,2.27-.17,1.15-.42,2.3-.7,3.43-.14.55-.07,1.02.17,1.51.27.55.44,1.15.34,1.77-.13.87-.45,1.68-.87,2.45-.14.2-.27.41-.45.67.14.02.23.02.31.03.07.02.13.05.2.06.44.09.89.17,1.32.27.21.05.29.16.23.44-.19.89-.34,1.79-.46,2.7-.09.66-.12,1.33-.18,2-.17.89-.52,1.69-1.23,2.3-.57.43-1.23.51-1.91.55-.69.03-1.38.06-2.08.08-.68,0-1.36,0-2.04,0-.77-.09-1.55-.16-2.32-.27-.14-.02-.29-.12-.39-.22-.8-.77-1.21-1.76-1.59-2.78-.04-.11-.09-.21-.14-.32-.05-.16-.1-.33-.15-.49-.02-.17-.09-.28-.3-.26-.4.02-.79.02-1.19.02-.31-.06-.44.03-.54.36-.36,1.2-.73,2.4-1.54,3.4-.42.52-.9.94-1.51,1.21-.05.02-.1.07-.15.1-.24.06-.48.12-.72.17-1.28.2-2.54-.11-3.82-.13-.76-.01-1.52-.02-2.28-.06-.76-.05-1.45-.33-2.08-.77-.1-.07-.18-.18-.24-.29-.38-.68-.58-1.42-.6-2.2-.01-.59,0-1.18,0-1.83-.76-.08-1.52-.15-2.28-.23-.02,0-.05,0-.07,0-.26.04-.12.23-.12.35.01,1.05.04,2.11.05,3.16,0,.03-.02.05-.12.09-.02-.12-.07-.25-.07-.37,0-1.06,0-2.13,0-3.22-1.06-.06-2.01.17-3,.32.25.42.49.83.72,1.24.59,1.07,1.15,2.15,1.47,3.33.01.04.04.07.06.11l.07.71s-.04.02-.06.04c-.06-.1-.13-.2-.18-.31-.53-1.2-1.03-2.42-1.6-3.61-.35-.72-.79-1.39-1.22-2.07-.15-.25-.36-.47-.58-.66-.46-.42-1.13-.31-1.52.23-.3.43-.36.93-.4,1.44-.14,2.11.65,3.94,1.61,5.73.31.58.65,1.16.97,1.74.02.04-.01.12-.02.18-.56-.93-1.16-1.84-1.68-2.8-.83-1.54-1.31-3.18-1.18-4.94.04-.46.16-.93.32-1.37.16-.42.49-.71.98-.73.15,0,.3-.03.43-.05-.26-.45-.53-.87-.76-1.3-.58-1.06-.83-2.18-.6-3.38.13-.68,0-1.28-.34-1.87-.2-.33-.37-.69-.55-1.03-.21-1.02.14-1.9.7-2.72.09-.13.26-.2.4-.3-.06.19-.12.38-.19.57-.18.48-.41.94-.53,1.43-.13.53-.12,1.07.27,1.6,0-.29,0-.52,0-.75-.05-1.01.25-1.92.77-2.76.42-.68.87-1.35,1.34-2.09-.12.39-.18.75-.33,1.06-.2.41-.47.77-.71,1.16-.84,1.42-.94,2.92-.5,4.49.12.43.16.93.1,1.37-.15.95-.09,1.86.33,2.72.34.69.74,1.35,1.11,2.03.03.05.09.07.15.11.35-.53.85-.82,1.42-.91.77-.12,1.55-.14,2.33-.2.13-.01.26,0,.4,0,.04-1.16.4-2.15,1.1-3,.35-.41.8-.74,1.21-1.1.1.06.19.11.29.17Zm-1,5.37c.48-.07.73-.43.77-.97-.18-.02-.36-.06-.55-.07-.5-.02-1-.02-1.5-.03-.86.04-1.73.05-2.59.13-.6.06-1.04.39-1.31.81.21.44.57.36.93.27.97-.24,1.96-.26,2.96-.15.43,0,.86.06,1.28,0Zm27.47.9c0-1.11.17-2.18.44-3.25.01-.05.02-.1.04-.22-.46-.05-.91-.1-1.35-.15-.07.02-.2.02-.21.06-.07.2-.17.11-.28.05-.08-.06-.16-.17-.24-.17-1.19.03-2.38.07-3.57.12-.45.02-.9.08-1.34.13-.62.1-1.26.16-1.86.32-.82.22-1.63.49-2.32,1.04-.48.39-.62.9-.56,1.43.19,1.6.87,3.03,1.72,4.38.07.11.22.22.35.23,1.29.08,2.59.17,3.89.19.92,0,1.85-.1,2.78-.17.69-.05,1.22-.42,1.65-.95.22-.49.43-.98.65-1.47.08-.53.23-1.05.23-1.58Zm-23.43,5.02c.98.03,1.96.03,2.95.07.46.02.92.1,1.39.11,1.5.03,2.82-.39,3.67-1.71.46-.72.82-1.52,1.16-2.31.32-.72.55-1.48.82-2.23.07-.19.18-.36.27-.53.26.03.29.16.21.36-.08.22-.15.45-.22.68.5.04.97.08,1.46.12,0-.66-.15-1.38.46-2-.66.03-1.26.06-1.88.09.46.16.91.32,1.35.47-.01.05-.03.09-.04.14-.27-.05-.54-.07-.8-.14-1.64-.46-3.31-.69-5-.89-1.19-.14-2.38-.24-3.57-.17-1.32.08-2.59.37-3.72,1.1-.03.02-.06.06-.09.09-.17.09-.33.18-.5.26-.08.04-.23.07-.24.11-.12.92-.22,1.83-.32,2.75-.03.91.11,1.78.51,2.6.04.09.12.17.18.25.56.5,1.22.73,1.96.76Z"/>
      <path class="cls-24" d="m74.15,77.89c.97-1.2,1.85-2.46,2.54-3.84.52-1.05.97-2.12,1.17-3.28.09-.55-.01-1.09-.2-1.61-.05-.14-.11-.27-.16-.41-.6-1.07-1.5-1.83-2.53-2.46-.08-.02-.15-.05-.23-.07.16.19.35.33.52.5.55.53,1.14,1.04,1.64,1.62.44.51.64,1.17.57,1.83-.07.64-.25,1.28-.47,1.89-.9,2.51-2.4,4.63-4.21,6.56-1.46,1.55-3.07,2.93-4.76,4.23-.9.69-1.82,1.37-2.77,1.99-.7.46-1.5.62-2.34.43-.71-.16-1.41-.34-2.11-.53-.72-.2-1.44-.36-2.18-.29-.24.02-.47.09-.71.14,0,.04,0,.09,0,.13.18.05.37.1.55.15-.31.1-.62.2-.93.31-1.39.5-2.81.62-4.27.31-2.36-.5-4.73-.94-7.16-.92-.78,0-1.56,0-2.34,0-.68-.01-1.37-.03-2.05-.04-.19-.02-.37-.04-.56-.07-.63-.14-1.26-.28-1.89-.42-.01.03-.03.06-.04.09.32.13.64.29.97.39.38.11.77.17,1.15.25.19,0,.37,0,.56.01.82,0,1.65-.02,2.47-.01.58,0,1.16.04,1.73.06.81.05,1.61.09,2.41.14.29.02.57.08.86.12.9.14,1.81.27,2.71.42,1,.17,2,.46,3.01.5.78.03,1.57-.23,2.35-.38.34-.06.66-.18.99-.28.29-.12.59-.25.88-.37.1-.05.2-.16.3-.14.31.04.61.12.92.19.65.17,1.29.34,1.94.5,1.63.41,3.05-.04,4.32-1.09,1.55-1.28,3.15-2.49,4.66-3.82.96-.84,1.79-1.81,2.68-2.73Z"/>
      <path class="cls-24" d="m34.14,27.29c.06-.13.15-.26.17-.4.12-.77.21-1.55.34-2.31.25-1.54,1.11-2.64,2.51-3.32.94-.46,1.89-.89,2.83-1.33.04-.02.07-.04.11-.07-.1-.03-.23-.12-.31-.09-.48.17-.96.36-1.44.55-.1.04-.19.08-.29.12-.53.29-1.07.58-1.59.89-1.24.73-1.89,1.86-2.08,3.26-.07.52-.09,1.04-.13,1.56-.03.38-.07.76-.11,1.14Z"/>
      <path class="cls-24" d="m44.22,17.15c-.19.21-.38.41-.57.62l.05.09c.11-.04.24-.05.33-.12.24-.17.47-.36.69-.55.82-.68,1.71-.83,2.72-.48.56.19,1.15.39,1.73.42.55.03,1.1-.16,1.66-.25,1.12-.55,2.22-1.18,3.55-.99,0-.04,0-.07.01-.11-.15-.04-.31-.09-.46-.1-1-.1-1.87.3-2.75.67-.54.23-1.09.48-1.66.56-.5.07-1.04-.05-1.55-.14-.56-.1-1.11-.3-1.68-.38-.66-.1-1.23.18-1.76.55-.1.07-.21.14-.31.21Z"/>
      <path class="cls-24" d="m57.55,17.8c-.26.13-.51.29-.78.4-.27.1-.56.16-.84.23.15.27.43.38.74.26.43-.17.84-.36,1.27-.55.11-.05.21-.08.32-.12.63-.27,1.24-.12,1.82.16.61.3,1.08.76,1.52,1.26.07.08.15.16.25.21-.47-.73-1.03-1.39-1.82-1.79-.81-.42-1.65-.39-2.48-.07Z"/>
      <path class="cls-24" d="m42.06,18.59c-.02.58-.05,1.15-.04,1.73,0,.18-.03.44.22.49.11-.89.23-1.77.34-2.65.32-.91.91-1.52,1.89-1.72,0-.03,0-.06,0-.1-.13-.03-.27-.1-.4-.09-.75.04-1.51.66-1.74,1.41-.1.31-.18.62-.27.92Z"/>
      <path class="cls-8" d="m58.47,85.35c-.33.09-.66.21-.99.28-.78.15-1.57.41-2.35.38-1.01-.04-2.01-.33-3.01-.5-.9-.15-1.81-.28-2.71-.42.7.14,1.39.3,2.09.43,1.06.2,2.13.38,3.19.6.68.14,1.35.04,1.99-.15.6-.17,1.19-.41,1.78-.61Z"/>
      <path class="cls-24" d="m41.04,19.36c.05.37.09.75.15,1.12.02.12.12.23.22.41-.04-.66-.07-1.22-.1-1.79-.01-.72.22-1.38.44-2.04.03-.09,0-.21-.04-.31-.5.81-.68,1.68-.67,2.6Z"/>
      <path class="cls-25" d="m46.14,84.82c-.58-.02-1.16-.05-1.73-.06-.82,0-1.65,0-2.47.01.54.02,1.07.05,1.61.06.87,0,1.73,0,2.6-.01Z"/>
      <path class="cls-10" d="m60.56,85.02c-.31-.07-.61-.15-.92-.19-.09-.01-.2.09-.3.14.4.02.81.03,1.21.05Z"/>
      <path class="cls-9" d="m49.97,47.73c-.69.09-1.38.13-2.07.21-.91.11-1.86.14-2.56.82-.31.31-.62.69-.75,1.1-.42,1.27-.58,2.57-.05,3.86.32.79.98,1.22,1.74,1.51.32.12.67.18,1,.26.02,0,.04,0,.06.01.26.19.52.38.85.62-.13-.22-.22-.39-.33-.54-.58-.83-.66-1.71-.3-2.64.02-.06.02-.12.03-.19.34-.67.74-1.29,1.32-1.78.14-.1.3-.19.42-.32.4-.39.78-.79,1.21-1.24.07,1.18.83,1.76,1.67,2.22,1.27.69,2.64.96,4.09.87.39-.02.69-.23.97-.49.47-.43.95-.86,1.43-1.28.09-.03.18-.06.27-.09.88-.34,1.11-1.37.4-2.13.22.51.36.94.08,1.39-.63-.14-1.07.16-1.43.63-.03.04-.11.05-.16.08-.1.04-.22.07-.31.13-.34.22-.66.45-.99.68-.34-.13-.77-.18-.99-.42-.63-.7-1.39-.9-2.28-.79-.38,0-.75,0-1.13-.01-.13-.06-.25-.13-.38-.19l-.07-.19c.02-.59.36-1.05.67-1.51.26-.38.58-.72.88-1.07.03-.04.08-.06.13-.09.64-.31,1.01-.84,1.25-1.48.31-.79.44-1.62.49-2.47.02-.31.04-.63.06-.94,0-.02,0-.03.01-.05.4,0,.79,0,1.19-.02.21-.01.28.09.3.26-.02.82-.07,1.63-.06,2.45,0,.9.31,1.73.73,2.52.2.36.45.69.6,1.07.14.37.18.79.31,1.18v-.74c.16-.29.3-.6.48-.88.09-.14.26-.23.39-.35.4.39.8.78,1.2,1.17.33.95.86,1.79,1.55,2.51.78.81,1.01,1.74.77,2.82-.04.18-.07.37-.1.56-.04.1-.08.21-.12.31-.02.11-.04.22-.06.33l.06.03c.19-.33.37-.66.56-1h0c.19-.4.44-.78.57-1.2.23-.7-.06-1.29-.54-1.78-.45-.46-.95-.87-1.42-1.31-.09-.09-.13-.23-.2-.34-.19-.21-.37-.43-.56-.64-.27-.56-.54-1.11-.81-1.67l-.08.03c.06.3.13.61.19.91-.29-.29-.58-.57-.87-.86-.11-.18-.2-.36-.32-.52-.83-1.03-1.56-2.11-1.96-3.39-.07-.24-.1-.49-.15-.74.05.11.1.21.14.32.38,1.01.79,2.01,1.59,2.78.11.1.25.2.39.22.77.1,1.55.18,2.32.27.27.02.54.06.81.06.41,0,.82-.03,1.22-.05.69-.03,1.38-.05,2.08-.08.68-.03,1.34-.12,1.91-.55,0,.42,0,.85,0,1.27-.06-.26-.11-.52-.17-.77-.03,0-.06,0-.09.01.03.44.09.88.1,1.32,0,.91-.02,1.83-.03,2.74,0,.1,0,.2,0,.3-.04.11-.11.21-.12.32-.05.39-.08.77-.12,1.16-.13.56-.23,1.13-.39,1.68-.6,2.09-1.56,4-2.86,5.74,0-.06-.02-.12,0-.17.35-.86.49-1.76.52-2.68.02-.83.08-1.66.12-2.49.11-.46.22-.91.33-1.37-.03,0-.06-.02-.1-.03-.53,1.39-.96,2.82-1.36,4.26-.26.61-.52,1.22-.77,1.83-.04.07-.08.14-.11.21-.14.27-.27.54-.42.8-.53.96-1.06,1.92-1.59,2.88-.04.08-.07.17-.1.26-.67.93-1.54,1.64-2.48,2.27-.81.07-1.62.13-2.43.2-1.31-.27-2.55-.71-3.63-1.53-1.25-.95-2.12-2.18-2.75-3.6-.05-.1-.16-.17-.25-.26-.26-.48-.52-.96-.78-1.44-.17-.33-.34-.66-.51-.98-.17-.33-.34-.66-.51-.98-.28-.51-.76-.62-1.28-.75-.54-.13-1.05-.37-1.56-.58-1.17-.47-2.23-1.09-3.07-2.05-.69-.79-1.17-1.69-1.32-2.74-.02-.26-.05-.52-.07-.79,0-.84.01-1.69,0-2.53,0-.74-.04-1.47-.07-2.21,0-1.08,0-2.15,0-3.23.76.08,1.52.15,2.28.23,0,.66-.01,1.24,0,1.83.02.78.21,1.52.6,2.2.06.11.14.22.24.29.63.44,1.32.72,2.08.77.76.05,1.52.05,2.28.06,1.27.02,2.54.33,3.82.13-.26.08-.52.21-.79.25Zm11.96,6.5c.07-.04.18-.1.18-.14,0-.08-.07-.19-.13-.22-.24-.12-.49-.26-.76-.31-.82-.18-1.65-.33-2.48-.46-.24-.04-.51.01-.75.06-.85.16-1.67-.07-2.51-.11-.88-.04-1.77,0-2.66.02-.44.01-.88.04-1.33.08-1.36.13-2.72.25-4.06.72.28.12.57.23.84.37.14.07.29.16.4.28,1.17,1.36,2.4,2.64,3.86,3.69.08.06.14.15.22.23.41.55.99.84,1.6,1.08,1.7.66,3.62.26,4.8-.99.07-.08.14-.17.19-.28-1.85,1.49-3.78,1.99-5.9.6.1.02.19.04.29.07.4.11.8.26,1.21.32.51.07,1.03.03,1.54.08.86.09,1.53-.31,2.14-.84,1.31-1.13,2.23-2.57,3.07-4.06.02-.04.05-.08.07-.13.06-.02.13-.02.18-.05Z"/>
      <path class="cls-7" d="m45.94,84.45c-.91-.11-1.81-.22-2.72-.32-.66-.07-1.32-.13-1.97-.2-.59-.19-1.18-.36-1.75-.58-.31-.12-.6-.3-.9-.45-2.25-2.25-4.78-4.13-7.52-5.73-.75-.44-1.49-.92-1.86-1.76-.18-.4-.31-.84-.35-1.27-.07-.82-.05-1.64-.07-2.46.38.63.69,1.32,1.16,1.87.69.8,1.46,1.56,2.27,2.25,1.35,1.14,2.77,2.2,4.14,3.32.65.54,1.23,1.15,1.86,1.71.98.87,2.1,1.38,3.43,1.53,2.34.27,4.68.43,7.04.35,1.42-.05,2.81-.29,4.09-.95.14-.07.26-.17.39-.26.61.14,1.21.29,1.82.43.01-.02.02-.05.03-.07-.49-.18-.98-.36-1.46-.54.34-.26.65-.59,1.03-.77.36-.18.78-.22,1.18-.3,1.48-.27,2.81.18,4.1.84,1.48.76,3.05,1.28,4.71,1.45.05,0,.1.04.15.05.15.17.32.21.53.13.11-.04.22-.05.34-.08.4-.02.8,0,1.2-.06.16-.02.31-.16.45-.27,1.42-1.15,2.85-2.29,4.09-3.63,1-1.08,1.81-2.28,2.06-3.78.21-1.29.2-2.58.12-3.88-.07-1.16-.25-2.3-.53-3.42-.03-.13-.09-.25-.13-.38.12-.89-.28-1.56-.89-2.14-.12-.15-.22-.35-.37-.45-1.7-1.14-3.5-2.09-5.42-2.8-.93-.34-1.88-.44-2.86-.22-.06.01-.14-.02-.21-.02.02-.05.04-.11.06-.16.36-.06.72-.14,1.08-.18,1.54-.18,3.05-.08,4.49.54.04.02.08.02.12.03.34.18.68.36,1.02.54.07.04.15.07.22.12,1.17.87,2.35,1.73,3.51,2.61.47.36.9.78,1.35,1.18-.08-.02-.15-.05-.23-.07.16.19.35.33.52.5.55.53,1.14,1.04,1.64,1.62.44.51.64,1.17.57,1.83-.07.64-.25,1.28-.47,1.89-.9,2.51-2.4,4.63-4.21,6.56-1.46,1.55-3.07,2.93-4.76,4.23-.9.69-1.82,1.37-2.77,1.99-.7.46-1.5.62-2.34.43-.71-.16-1.41-.34-2.11-.53-.72-.2-1.44-.36-2.18-.29-.24.02-.47.09-.71.14,0,.04,0,.09,0,.13.18.05.37.1.55.15-.31.1-.62.2-.93.31-1.39.5-2.81.62-4.27.31-2.36-.5-4.73-.94-7.16-.92-.06-.04-.12-.11-.19-.11Zm10.42-2.44c1.68.48,3.35.99,5.03,1.43.83.22,1.69.32,2.54.44.84.13,1.63-.09,2.42-.36,0-.03,0-.07.01-.1-.1-.02-.21-.07-.31-.06-.76.08-1.52.27-2.28.24-1.29-.04-2.53-.37-3.76-.77-1.06-.34-2.13-.64-3.2-.95-.24-.07-.5-.08-.74-.12-.01.03-.02.06-.03.09.11.05.21.13.32.16Z"/>
      <path class="cls-24" d="m63.16,61.45c.36-.06.72-.14,1.08-.18,1.54-.18,3.05-.08,4.49.54.04.02.08.02.12.03.02-.02.04-.04.06-.06-1.26-.56-2.73-1.18-5.88-.63.05-.15.07-.29.14-.38,1.11-1.21,1.95-2.59,2.66-4.06.81-1.7,1.3-3.5,1.49-5.37.1-.98.11-1.97.12-2.96,0-.4-.08-.81-.13-1.21-.06-.26-.11-.52-.17-.77-.03,0-.06,0-.09.01.03.44.09.88.1,1.32,0,.91-.02,1.83-.03,2.74,0,.1,0,.2,0,.3-.08.49-.16.98-.24,1.48-.13.56-.23,1.13-.39,1.68-.6,2.09-1.56,4-2.86,5.74-.27.34-.54.68-.82,1.02-.25.32-.5.65-.75.97.02.02.04.04.06.05.26-.22.53-.44.79-.66.03,0,.06.01.08.02-.44,3.28-.87,6.56-1.31,9.85.44-1.71.64-3.47.89-5.21.04-.32.08-.65.11-.97.11-1.07.21-2.14.32-3.21,0-.03.09-.06.14-.09Z"/>
      <path class="cls-24" d="m68.92,61.79s-.04.04-.06.06c.34.18.68.36,1.02.54-.14-.12-.28-.25-.43-.34-.16-.1-.35-.17-.53-.26Z"/>
      <path class="cls-24" d="m33.57,29.09c.15-.4.29-.8.44-1.19-.15.4-.29.8-.44,1.19Z"/>
      <path class="cls-24" d="m38.6,82.91c-2.25-2.25-4.78-4.13-7.52-5.73-.75-.44-1.49-.92-1.86-1.76-.18-.4-.31-.84-.35-1.27-.07-.82-.05-1.64-.07-2.46-.02-.68-.11-1.34-.38-1.98-.03-.1-.1-.2-.08-.29.05-.27.14-.52.21-.78.03-.08.06-.16.1-.23.53-1.02,1.4-1.63,2.45-1.99.98-.34,1.98-.59,2.96-.91.7-.23,1.38-.53,2.08-.76.25-.09.53-.09.8-.13-.08.17-.19.26-.29.35-1.15,1.02-2.07,2.19-2.69,3.61-.48,1.09-.58,2.21-.42,3.38.03.21.13.33.37.3.03-.4.05-.8.08-1.2.03-.34.03-.68.1-1.01.34-1.71,1.26-3.09,2.49-4.29,1.14-1.11,2.47-1.95,3.8-2.8.02-.01.06,0,.17,0-.12.72-.19,1.44-.37,2.12-.41,1.54-1.3,2.83-2.35,4.01-.39.44-.79.88-1.17,1.3.15.3.29.17.43.08.01-.02.02-.04.04-.05,1.54-1.61,2.9-3.34,3.42-5.56.15-.61.14-1.27.16-1.9.03-.81.01-1.63.02-2.44-.09-1.36-.17-2.73-.26-4.09h.09c.33.55.66,1.11.99,1.66.03-.01.05-.03.08-.04-1.09-2.01-2-4.09-2.54-6.31-.07-.15-.15-.29-.25-.49-.09.31-.1.55-.22.73-.45.65-1.39.62-1.84-.04-.05-.08-.17-.12-.25-.18.43,1.07,1.45,1.25,2.34.46.43,1.11.86,2.23,1.29,3.35.06.15.1.32.11.48.03.67.04,1.34.07,2.01.04,1.14.09,2.29.14,3.43,0,.21.02.42.06.62.05.28-.06.44-.32.52-.1.03-.19.09-.28.14-.81.5-1.62,1.01-2.44,1.51-.1.06-.24.12-.34.1-.74-.16-1.43.01-2.12.29-.56.22-1.14.4-1.71.6-.6.18-1.2.36-1.8.54-1.11.38-2.2.8-2.93,1.79-.29.4-.49.87-.75,1.33-.02,0-.12-.02-.27-.04.1.22.18.39.26.56.41.77.48,1.6.44,2.45.02.58.03,1.15.06,1.73.02.36.08.73.13,1.09.22.45.45.91.67,1.36.71.81,1.67,1.28,2.57,1.82,2.43,1.47,4.65,3.22,6.73,5.14.09.08.22.12.33.18.02-.02.03-.04.05-.07-.07-.08-.15-.16-.22-.24Z"/>
      <path class="cls-8" d="m28.28,71.9c.04-.85-.03-1.68-.44-2.45.15.82.3,1.63.44,2.45Z"/>
      <path class="cls-16" d="m31.53,65.81c.6-.18,1.2-.36,1.8-.54-.65,0-1.25.18-1.8.54Z"/>
      <path class="cls-6" d="m29.15,76.07c-.22-.45-.45-.91-.67-1.36-.02.58.19,1.03.67,1.36Z"/>
      <path class="cls-3" d="m35.47,50.41c0-.06.04-.14.02-.18-.32-.58-.65-1.16-.97-1.74-.96-1.79-1.75-3.63-1.61-5.73.03-.51.09-1.01.4-1.44.38-.54,1.06-.65,1.52-.23.22.2.42.42.58.66.43.68.87,1.35,1.22,2.07.57,1.19,1.07,2.41,1.6,3.61.05.11.12.21.18.31.02-.01.04-.02.06-.04l-.07-.71c.11.29.23.57.34.86-.02.08-.07.17-.05.24.19.63.4,1.25.6,1.88.03.1.04.2.06.31-.08.49-.17.98-.25,1.47-.07-.15-.15-.29-.25-.49-.09.31-.1.55-.22.73-.45.65-1.39.62-1.84-.04-.05-.08-.17-.12-.25-.18-.36-.45-.71-.9-1.07-1.35Zm2.46-2.92s.04-.01.06-.02c-.01-.06-.02-.13-.04-.18-.34-.67-.68-1.34-1.04-2.01-.05-.1-.16-.16-.24-.24l-.06.1c-.3-.03-.53.08-.64.36-.14.33-.27.66-.35,1-.18.75.1,2.27.5,2.88.07-.56.12-1.14.22-1.71.09-.51.35-.92.83-1.16.07-.03.13-.11.19-.16l.58,1.14Zm-4.7-4.62c-.06,1.17.34,2.23.76,3.29.05.13.1.25.16.38.01.03.04.05.05.06.06-.47.09-.94.18-1.41.06-.29.18-.58.31-.85.16-.35.5-.43.84-.47.03.02.05.04.08.05.02,0,.04,0,.09,0-.34-.7-.74-1.33-1.36-1.8-.15-.11-.33-.27-.55-.09-.41.15-.55.36-.57.83Z"/>
      <path class="cls-22" d="m67.59,37.46c-.14.2-.27.41-.45.67.14.02.23.02.31.03.05-.23.09-.47.14-.7Z"/>
      <path class="cls-17" d="m41.46,35.65c.1.06.19.11.29.17-.06-.17-.1-.34-.18-.5-.32-.67-.67-1.32-.96-2-.71-1.68-.99-3.41-.57-5.21.42-1.8,1.48-3.06,3.19-3.78,1.4-.59,2.88-.79,4.37-.9,1.18-.08,2.36-.09,3.54-.14.66-.02,1.33-.04,1.99-.07.23-.01.46-.04.69-.1,1.04-.27,2.08-.54,3.11-.82,1.5-.41,2.96-.36,4.34.43.3.17.58.37.87.56-1.04-1.02-2.14-1.92-3.73-1.85-.25.01-.51-.03-.64-.31-.58.07-1.15.13-1.73.2-.91.08-1.82.18-2.73.24-.24.02-.43.08-.64.2-.43.25-.89.49-1.36.64-.4.13-.8,0-1.23-.28.48,0,.89.06,1.27-.02.37-.08.71-.3,1.06-.47-.01-.03-.03-.06-.04-.08-.16,0-.32-.03-.47-.02-.22,0-.44-.02-.65.04-.35.09-.69.26-1.04.35-.17.04-.36-.02-.55-.03,0-.02,0-.04,0-.07l1.13-.31c-.78-.16-1.53-.13-2.3-.04-.82.1-1.43.48-1.91,1.1-.18.23-.3.5-.47.79-.07-.06-.21-.12-.2-.16.05-.31.12-.61.19-.93-.32-.17-.69-.22-1.07-.14-.67.29-1.33.57-2,.86-.29.2-.6.38-.87.62-.75.66-1.38,1.43-1.87,2.31-.84,1.49-1.37,3.07-1.32,4.79.02.86.1,1.73.16,2.59,0,.02.02.04.03.06.17,0,.25.04.11.2.03.04.05.08.08.12.1-.01.21-.02.31-.03,0,.03.01.05.02.08-.06.07-.12.13-.18.2.06.07.11.14.17.22.09-.04.18-.09.27-.13.01.02.03.04.04.06-.06.08-.12.17-.18.25.08.08.16.16.24.24.1-.04.19-.07.37-.14-.1.15-.15.22-.2.29.06.06.11.13.17.19.17-.07.34-.15.5-.22.01.03.03.06.04.08-.11.1-.22.2-.33.31.11.08.22.15.33.23.12-.02.24-.05.36-.07,0,.02.02.04.03.06-.05.06-.1.12-.15.17.1.06.2.12.3.17Z"/>
      <path class="cls-24" d="m39.12,33.32c-.05-.86-.14-1.73-.16-2.59-.04-1.73.49-3.31,1.32-4.79.49-.87,1.11-1.65,1.87-2.31.27-.23.58-.41.87-.62.56-.53,1.22-.82,2-.86.39-.09.75-.03,1.07.14-.07.32-.14.62-.19.93,0,.04.13.11.2.16.17-.29.29-.56.47-.79.48-.62,1.09-1,1.91-1.1.77-.1,1.52-.12,2.3.04l-1.13.31s0,.04,0,.07c.18.01.38.08.55.03.35-.09.69-.25,1.04-.35.2-.05.43-.04.65-.04.16,0,.32.02.47.02.01.03.03.06.04.08-.35.16-.69.39-1.06.47-.38.08-.78.02-1.27.02.42.27.83.41,1.23.28.47-.16.93-.39,1.36-.64.21-.12.4-.18.64-.2.91-.07,1.82-.16,2.73-.24.21-.08.43-.15.65-.23-.03-.25-.17-.26-.38-.23-.95.15-1.9.29-2.9.44.4-.55,1.2-.9,2.21-1.04-.81-.18-1.53.07-2.11.57-.51.44-1.05.46-1.75.38.4-.39.76-.74,1.12-1.08-.14-.1-.35-.05-.52.09-.26.2-.49.43-.71.67-.2.21-.4.3-.71.27-1.03-.1-2.07-.23-3.09.04-.37.1-.71.32-1.06.49-.14.07-.27.15-.42.23-.01-.81.68-2.37,2.21-3.16,0-.03,0-.06,0-.09-.1.01-.22,0-.31.04-1.27.61-1.93,1.66-2.11,3.03,0,.06-.01.12-.02.21-.12,0-.24.03-.35,0-1.11-.32-2.09.01-3,.61-2.12,1.39-3.4,3.37-4.06,5.78-.42,1.54-.52,3.1-.02,4.65.07.23.19.35.43.32Z"/>
      <path class="cls-17" d="m66.45,35.27c-.16-1-.28-2.02-.46-3.02-.28-1.57-.6-3.14-1.19-4.64-.3-.77-.69-1.52-1.03-2.27-.02-.05-.03-.1-.05-.15,1.18,1.42,2.25,2.9,2.11,4.9.19-.51.08-1.03.05-1.54.09.2.17.4.26.59.18.75.38,1.49.52,2.24.14.75.2,1.5.3,2.26,0,.35,0,.69,0,1.04,0,.1-.03.2-.05.3-.09-.52-.04-1.08-.34-1.55-.04.16-.06.3-.04.45.09.77.2,1.54.28,2.32.04.44.03.9.04,1.34-.13-.75-.27-1.51-.39-2.26Zm-.41-3.31s.08-.01.11-.02c-.07-.45-.15-.89-.22-1.34-.03,0-.05,0-.08.01.06.45.13.89.19,1.34Z"/>
      <path class="cls-35" d="m67.79,30.54c.64-2.04.97-4.06-.47-5.94.02-.02.04-.03.07-.05.2.22.41.44.61.65.09-.5-.11-1.21-.48-1.71-.49,0-.97.01-1.46.02.14.19.28.37.42.56.08.11.16.22.24.33.73,1.26,1.02,2.63.92,4.07-.05.71-.04,1.4.15,2.08Z"/>
      <path class="cls-24" d="m63.72,25.2c1.18,1.42,2.25,2.9,2.11,4.9.19-.51.08-1.03.05-1.54-.27-1.07-.76-2.03-1.42-2.91-.91-1.2-1.81-2.43-3.01-3.37-.92-.73-1.92-1.28-3.14-1.25-.18,0-.36.08-.55.12.13.27.39.32.64.31,1.59-.08,2.69.83,3.73,1.85.53.63,1.06,1.26,1.59,1.89Z"/>
      <path class="cls-24" d="m36.49,29.68c-.5,1.1-1.32,1.84-2.5,2.24.05-.5.11-.96.16-1.42-.05,0-.1-.01-.15-.02-.08.39-.18.78-.24,1.18-.18,1.21-.04,2.39.3,3.56.08.27-.04.59-.07.89-.12,1.17.17,2.22.89,3.15.03.04.07.06.15.07-.06-.09-.11-.19-.17-.28-.59-1-.85-2.06-.66-3.22.02-.09.11-.17.2-.32-.26-.93-.41-1.97-.41-3.03,0-.3.09-.44.38-.53,1.01-.32,1.72-1.01,2.18-1.95.04-.09.04-.19.06-.29-.03,0-.07-.02-.1-.03Z"/>
      <path class="cls-24" d="m38.47,26.95c-.13.73-.29,1.46-.4,2.19-.15,1.06-.22,2.14-.38,3.2-.22,1.46-.83,2.74-1.94,3.75.01.03.03.06.04.09.1-.04.22-.06.31-.12.72-.55,1.21-1.28,1.45-2.14.25-.91.43-1.85.57-2.78.19-1.36.31-2.72.46-4.08,0-.03,0-.06-.01-.09-.03,0-.06-.01-.09-.02Z"/>
      <path class="cls-24" d="m66.14,29.15c.18.75.38,1.49.52,2.24.14.75.2,1.5.3,2.26.02.08.04.16.05.24,0,.53.03,1.07.01,1.6,0,.21.04.37.2.5.06-.29.17-.57.17-.86,0-1.27-.1-2.53-.4-3.76-.16-.64-.37-1.27-.57-1.9-.04-.12-.18-.21-.27-.32Z"/>
      <path class="cls-24" d="m66.72,24.39c-.08-.11-.16-.22-.24-.33-.4-.08-.8-.23-1.2-.24-1.37,0-2.48-.56-3.33-1.61-.48-.59-.9-1.23-1.35-1.84-.08-.11-.16-.21-.27-.35-.02.09-.04.12-.03.14.64,1.27,1.41,2.43,2.63,3.23.74.49,1.56.75,2.44.73.47-.01.93.03,1.34.27Z"/>
      <path class="cls-35" d="m66.06,23.5c.49,0,.97-.01,1.46-.02-.41-.64-1.05-.89-1.74-1.07-.37-.09-.76-.13-1.14-.2.47.43.95.85,1.42,1.28Z"/>
      <path class="cls-24" d="m34.61,34.27c.1-.02.2-.03.29-.07.86-.41,1.48-1.07,1.96-1.88.43-.74.67-1.55.76-2.39.02-.15,0-.29-.06-.46-.21,2.08-1.28,3.6-3,4.71.02.03.04.06.07.09Z"/>
      <path class="cls-24" d="m51.48,18.07c-.76-.42-3.89,1.52-4.03,2.49,1.07-1.26,2.42-2.07,4.03-2.49Z"/>
      <path class="cls-24" d="m47.25,18.54c-.28-.04-.63.25-.96.74-.38.56-.59,1.17-.52,1.86.24-1,.67-1.88,1.48-2.59Z"/>
      <path class="cls-24" d="m66.88,27.54c.71-1.18-.11-2.77-1.57-3.04,1.43.55,1.84,1.62,1.57,3.04Z"/>
      <path class="cls-24" d="m41.15,35.48c.05-.06.1-.12.15-.17,0-.02-.02-.04-.03-.06-.12.02-.24.05-.36.07-.41.34-.83.67-1.24,1.02-.07.06-.08.19-.12.29.09-.04.19-.08.27-.14.44-.33.88-.67,1.32-1.01Z"/>
      <path class="cls-24" d="m40.59,35.09c.11-.1.22-.2.33-.31-.01-.03-.03-.06-.04-.08-.17.07-.34.15-.5.22-.27.27-.55.54-.82.82.03.04.07.07.1.11.31-.25.63-.51.94-.76Z"/>
      <path class="cls-24" d="m45.23,20.49c.23-.68.46-1.35.69-2.06-.4.37-.81,1.62-.69,2.06Z"/>
      <path class="cls-24" d="m40.2,34.73c.05-.07.1-.14.2-.29-.18.07-.27.1-.37.14-.27.25-.55.49-.82.74.03.04.07.08.1.12l.88-.71Z"/>
      <path class="cls-14" d="m67.22,35.99c-.15-.13-.2-.29-.2-.5.01-.53,0-1.07-.01-1.6,0-.08-.03-.16-.05-.24,0,.35,0,.69,0,1.04,0,.1-.03.2-.05.3.04.43.08.87.13,1.3,0,.06.07.11.11.17.02-.15.05-.31.07-.46Z"/>
      <path class="cls-24" d="m39.8,34.34c.06-.08.12-.17.18-.25-.01-.02-.03-.04-.04-.06-.09.04-.18.09-.27.13-.21.17-.42.34-.63.51.04.05.08.09.12.14.3-.03.41-.35.65-.47Z"/>
      <path class="cls-24" d="m39.49,33.95c.06-.07.12-.13.18-.2,0-.03-.01-.05-.02-.08-.1.01-.21.02-.31.03-.12.11-.25.22-.39.33.26.29.36-.12.54-.09Z"/>
      <path class="cls-24" d="m39.26,33.59c.14-.17.05-.21-.11-.2-.13.09-.25.19-.38.28.02.04.04.08.06.12.14-.07.29-.13.43-.2Z"/>
      <path class="cls-9" d="m63.77,25.34c.35.76.73,1.5,1.03,2.27.59,1.49.91,3.06,1.19,4.64.18,1,.3,2.01.46,3.02.12.76.26,1.51.39,2.26,0,.19-.02.37-.02.54-.46.03-.89.06-1.31.08-.8.03-1.61.04-2.41.07-1.19.04-2.37.16-3.54.42-.91.2-1.83.36-2.75.54-.32,0-.63,0-.95,0-.77,0-1.53,0-2.3,0-.66-.04-1.31-.08-1.97-.13-.68-.09-1.35-.18-2.03-.26-.17-.03-.35-.09-.52-.09-.82,0-1.64.01-2.46.02-.04,0-.09.04-.13.06-.26.04-.52.05-.77.11-.7.15-1.39.31-2.08.47-.15,0-.29,0-.44,0-.53,0-1.07,0-1.6,0-.69-.03-1.37-.06-2.06-.08.12-.78.38-1.51.89-2.11.42-.48.9-.91,1.36-1.35-.06-.17-.1-.34-.18-.5-.32-.67-.67-1.32-.96-2-.71-1.68-.99-3.41-.57-5.21.42-1.8,1.48-3.06,3.19-3.78,1.4-.59,2.88-.79,4.37-.9,1.18-.08,2.36-.09,3.54-.14.66-.02,1.33-.04,1.99-.07.23-.01.46-.04.69-.1,1.04-.27,2.08-.54,3.11-.82,1.5-.41,2.96-.36,4.34.43.3.17.58.37.87.56.53.63,1.06,1.26,1.59,1.89.01.05.02.1.05.15Zm-17.68,12.77c.08-.02.15-.05.23-.08.8-.21,1.62-.22,2.44-.19.4.02.79.11,1.19.11.42,0,.84-.02,1.25-.1.15-.03.26-.28.37-.44.02-.02-.1-.13-.15-.2-.94-.59-1.95-.99-3.09-.97-.31,0-.61,0-.92,0-.09,0-.17.07-.26.11-1.13.06-2.16.41-3.12.99-.36.22-.68.48-1.03.72-.18.12-.13.26-.04.41-.05.09-.1.18-.18.34.54-.1,1.03-.19,1.51-.29h0c.6-.14,1.2-.27,1.8-.42Zm13.29.37c1.92-.86,3.94-1.13,5.99-1.22.21.15.43.3.64.45.19-.25.09-.45-.06-.66-.53-.74-1.3-1.15-2.16-1.34-1.64-.37-3.13.03-4.11,1.43-.11.16-.22.34-.28.53-.04.12.03.28.06.42-.03.11-.05.22-.09.39Zm4.19-5.08c-.75-.09-1.51-.16-2.26-.2-1.25-.06-2.51-.11-3.77-.12-.96-.01-1.92.02-2.88.06-1.02.04-2.04.1-3.06.19-1.77.14-3.54.29-5.28.7-.27.06-.54.17-.8.25.06.55-.09.99-.53,1.53.1-.05.14-.06.18-.09.64-.56,1.44-.61,2.22-.68,1.38-.12,2.72.15,4.06.46,1.55.36,3.1.7,4.72.62,1.02-.05,1.97-.35,2.88-.77.69-.32,1.36-.68,2.07-.97,1.22-.5,2.5-.66,3.81-.49.06,0,.13,0,.27,0-.53-.36-1.08-.43-1.62-.5Z"/>
      <path class="cls-3" d="m46.12,39.85c.63-.09,1.28-.08,1.92-.11.61,0,1.23,0,1.84,0,1.08.07,2.17.13,3.25.2.07,0,.14.03.22.04.72.15.71.16.72.87.03,1.29-.17,2.52-.75,3.68-.85,1.69-2.46,2.45-4.28,2.21-1.4-.19-2.79-.45-4.18-.67-.4-.06-.82-.09-1.23-.09-.23,0-.34-.08-.42-.29-.65-1.56-.81-3.18-.52-4.84.01-.07,0-.15.01-.22.17-.09.33-.18.5-.26.97-.18,1.94-.38,2.91-.52Zm.95,2.72c.12,0,.23-.11.35-.17-.09-.06-.18-.12-.28-.17-.03-.02-.08,0-.12.01.32-.03.63-.06.95-.09-.09.11-.18.21-.27.32.14.09.28.2.44.26.1.04.23,0,.34-.03.79-.21,1.59-.18,2.39-.11.07,0,.18-.03.21-.08.03-.06,0-.18-.04-.23-.12-.12-.26-.21-.39-.31.16-.04.33-.08.49-.12.11.14.22.27.34.41.02-.02.05-.04.07-.06-.09-.28-.16-.54-.5-.7-1.21-.6-2.44-.52-3.64-.07-.75.28-1.46.7-2.18,1.07-.06.03-.11.09-.15.18.45.1.74-.32,1.13-.37h.76c-.13.15-.05.27.11.28Zm3.84-1.82c-.37-.12-.73-.28-1.11-.36-1.42-.3-2.71.07-3.93.79-.47.28-.92.6-1.38.9-.07.04-.13.1-.16.2.54-.23,1.07-.46,1.61-.69.1,0,.2,0,.29-.02.74-.27,1.48-.54,2.22-.82h2.45Zm-3.21,2.83c-1.02-.04-2.03-.22-2.99.04.41.26.85.52,1.28.8.55.35,1.15.54,1.81.55,1.16.02,2.24-.21,3.19-.89.51-.36.92-.8,1.09-1.41-.08-.02-.19-.07-.24-.04-.81.45-1.67.74-2.57.93.05,0,.1.02.15.02-.58,0-1.15.03-1.72,0Zm-3.71-.68c.24.17.77.2,1.11-.21-.44.08-.79.15-1.11.21Zm.66.26c-.29-.09-.41.18-.59.33.3.1.41-.17.59-.33Z"/>
      <path class="cls-17" d="m59.46,49.91c-.63-.14-1.07.16-1.43.63-.03.04-.11.05-.16.08,0,.06.03.14,0,.18-.61.83-1.77,1.25-2.76,1-.51-.13-.98-.35-1.26-.87.8.82,1.7,1.02,2.72.51-.34-.13-.77-.18-.99-.42-.63-.7-1.39-.9-2.28-.79.31.15.7.18.91.51-.13.02-.25-.04-.34-.01-.53.16-.98-.14-1.46-.25-.09-.02-.16-.17-.23-.26-.13-.06-.25-.13-.38-.19.07.15.15.31.22.47-.53-.35-.77-1.47-.25-1.79-.01.36-.02.75-.04,1.13.02-.59.36-1.05.67-1.51.26-.38.58-.72.88-1.07.03-.04.08-.06.13-.09.64-.31,1.01-.84,1.25-1.48.31-.79.44-1.62.49-2.47.02-.31.04-.63.06-.94-.15.26-.34.5-.45.78-.36.86-.65,1.76-1.06,2.59-.45.9-1.2,1.47-2.22,1.65-.24.06-.48.12-.72.17-.26.08-.52.21-.79.25-.69.09-1.38.13-2.07.21-.91.11-1.86.14-2.56.82-.31.31-.62.69-.75,1.1-.42,1.27-.58,2.57-.05,3.86.32.79.98,1.22,1.74,1.51.32.12.67.18,1,.26-.3-.69-.33-1.42-.19-2.14.19-.97.66-1.78,1.53-2.3.08-.05.19-.04.29-.06.14-.1.3-.19.42-.32.4-.39.78-.79,1.21-1.24.07,1.18.83,1.76,1.67,2.22,1.27.69,2.64.96,4.09.87.39-.02.69-.23.97-.49.47-.43.95-.86,1.43-1.28-.16-.02-.33-.04-.49-.05.51-.15,1-.24,1.25-.78Z"/>
      <path class="cls-3" d="m66.62,40.68c-.07.08-.18.15-.2.25-.32,1.27-.1,2.45.57,3.57-.42-.91-.48-1.87-.39-2.86.13.67.26,1.33.39,2,.08.44.16.88.24,1.31-.98.53-2.05.77-3.15.88-.99.1-2,.12-3,.13-.52,0-1.06-.04-1.57-.13-.18-.03-.38-.22-.49-.4-.59-.93-.91-1.97-1.07-3.05-.08-.5-.08-1.01-.14-1.51-.03-.28.08-.43.32-.54,1.15-.53,2.3-1.06,3.45-1.59.04-.02.07-.04.11-.06.45-.04.9-.11,1.34-.13,1.19-.05,2.38-.09,3.57-.12.08,0,.16.11.24.17l-.23,2.09Zm-1.03,1.94l.03-.07c-.13-.09-.26-.17-.39-.26-1.35-1.58-3.22-1.94-5.08-.84-.3.17-.57.38-.92.62.17.01.26.02.35.03.27.3.59.18.91.12.11-.06.22-.13.33-.19.34.39.79.25,1.21.25.68.01,1.36.03,2.04.05.1,0,.2-.02.29-.03.19.02.37.04.56.06.22.09.45.18.67.27Zm-3.6.88c-.21,0-.42,0-.63,0-.8-.14-1.61-.28-2.41-.42-.06-.01-.12-.02-.23.03.12.13.22.29.36.4.79.62,1.68.94,2.71.96.96.01,1.84-.18,2.63-.72.27-.18.5-.41.57-.79-.21.08-.39.14-.57.21-.8.2-1.6.37-2.43.33Zm.26-3.56c1.26.13,2.44.4,3.21,1.51,0-.28-.23-.76-.51-1-.7-.6-1.51-.91-2.43-1.03-1.31-.18-2.2.44-2.95,1.39-.17.22-.35.44-.52.66.03.03.05.07.08.1.79-1.06,1.73-1.78,3.13-1.63Zm.69.53c-.76-.46-2.89.19-3.43,1.06,1-.78,2.13-1.12,3.43-1.06Z"/>
      <path class="cls-12" d="m43.21,40.37c.97-.18,1.94-.38,2.91-.52.63-.09,1.28-.08,1.92-.11.61,0,1.23,0,1.84,0,1.08.07,2.17.13,3.25.2.07,0,.14.03.22.04.72.15.71.16.72.87.03,1.29-.17,2.52-.75,3.68-.85,1.69-2.46,2.45-4.28,2.21-1.4-.19-2.79-.45-4.18-.67-.4-.06-.82-.09-1.23-.09-.23,0-.34-.08-.42-.29-.65-1.56-.81-3.18-.52-4.84.01-.07,0-.15.01-.22-.08.04-.23.07-.24.11-.12.92-.22,1.83-.32,2.75.12.6.24,1.2.38,1.8.08.36.2.71.31,1.06.56.5,1.22.73,1.96.76.98.03,1.96.03,2.95.07.46.02.92.1,1.39.11,1.5.03,2.82-.39,3.67-1.71.46-.72.82-1.52,1.16-2.31.32-.72.55-1.48.82-2.23.07-.19.18-.36.27-.53.26.03.29.16.21.36-.08.22-.15.45-.22.68.5.04.97.08,1.46.12,0-.66-.15-1.38.46-2-.66.03-1.26.06-1.88.09.46.16.91.32,1.35.47-.01.05-.03.09-.04.14-.27-.05-.54-.07-.8-.14-1.64-.46-3.31-.69-5-.89-1.19-.14-2.38-.24-3.57-.17-1.32.08-2.59.37-3.72,1.1-.03.02-.06.06-.09.09Z"/>
      <path class="cls-35" d="m38.4,46.99c.11.29.23.57.34.86.08.15.17.29.22.44.19.55.37,1.11.56,1.66,0-.84.01-1.69,0-2.53,0-.74-.04-1.47-.07-2.21-.02-.11-.06-.22-.06-.33,0-.97,0-1.94,0-2.9-.26.04-.12.23-.12.35.01,1.05.04,2.11.05,3.16,0,.03-.02.05-.12.09-.02-.12-.07-.25-.07-.37,0-1.06,0-2.13,0-3.22-1.06-.06-2.01.17-3,.32.25.42.49.83.72,1.24.59,1.07,1.15,2.15,1.47,3.33.01.04.04.07.06.11Z"/>
      <path class="cls-12" d="m67.23,44.95c-.98.53-2.05.77-3.15.88-.99.1-2,.12-3,.13-.52,0-1.06-.04-1.57-.13-.18-.03-.38-.22-.49-.4-.59-.93-.91-1.97-1.07-3.05-.08-.5-.08-1.01-.14-1.51-.03-.28.08-.43.32-.54,1.15-.53,2.3-1.06,3.45-1.59.04-.02.07-.04.11-.06-.62.1-1.26.16-1.86.32-.82.22-1.63.49-2.32,1.04-.48.39-.62.9-.56,1.43.19,1.6.87,3.03,1.72,4.38.07.11.22.22.35.23,1.29.08,2.59.17,3.89.19.92,0,1.85-.1,2.78-.17.69-.05,1.22-.42,1.65-.95-.04-.07-.07-.14-.11-.2Z"/>
      <path class="cls-2" d="m56.72,42.48c-.02.82-.07,1.63-.06,2.45,0,.9.31,1.73.73,2.52.08.05.19.08.25.14.35.39.55.86.66,1.37.16-.29.3-.6.48-.88.09-.14.26-.23.39-.35-.1-.14-.21-.27-.31-.41l.05-.04c.13.11.27.23.4.34-.11-.18-.2-.36-.32-.52-.83-1.03-1.56-2.11-1.96-3.39-.07-.24-.1-.49-.15-.74-.05-.16-.1-.33-.15-.49Z"/>
      <path class="cls-35" d="m39.46,40.13c-.86.04-1.73.05-2.59.13-.6.06-1.04.39-1.31.81.21.44.57.36.93.27.97-.24,1.96-.26,2.96-.15,0-.36,0-.71,0-1.07Z"/>
      <path class="cls-12" d="m39.46,40.13c0,.36,0,.71,0,1.07.43,0,.86.06,1.28,0,.48-.07.73-.43.77-.97-.18-.02-.36-.06-.55-.07-.5-.02-1-.02-1.5-.03Z"/>
      <path class="cls-12" d="m41.56,39.37c-.69-.03-1.37-.06-2.06-.08-.06.43-.04.43.38.47.72.06,1.44.16,2.16.23.09,0,.2.02.28-.02.43-.19.86-.4,1.29-.6-.15,0-.29,0-.44,0-.53,0-1.07,0-1.6,0Z"/>
      <path class="cls-12" d="m51.48,47.32c1.02-.18,1.77-.76,2.22-1.65.41-.83.7-1.73,1.06-2.59.12-.27.3-.52.45-.78,0-.02,0-.03.01-.05-.31-.06-.44.03-.54.36-.36,1.2-.73,2.4-1.54,3.4-.42.52-.9.94-1.51,1.21-.05.02-.1.07-.15.1Z"/>
      <path class="cls-34" d="m66.69,40.78c.21-.77.43-1.53.64-2.3-.07.02-.2.02-.21.06-.07.2-.17.11-.28.05-.08.7-.15,1.39-.23,2.09.02.03.05.07.07.1Z"/>
      <path class="cls-30" d="m53.55,39.18c-.66-.04-1.31-.08-1.97-.13.68.1,1.36.28,2.05.29,1.02.02,2.04-.07,3.05-.12.04,0,.08-.03.11-.04-.32,0-.63,0-.95,0-.31.02-.62.06-.93.05-.46,0-.91-.03-1.37-.05Z"/>
      <path class="cls-15" d="m42.82,46.36c-.1-.35-.22-.7-.31-1.06-.14-.6-.25-1.2-.38-1.8-.03.91.11,1.78.51,2.6.04.09.12.17.18.25Z"/>
      <path class="cls-33" d="m49.56,38.79c-.17-.03-.35-.09-.52-.09-.82,0-1.64.01-2.46.02-.04,0-.09.04-.13.06.21,0,.42,0,.64,0,.64,0,1.27,0,1.91,0,.19,0,.38,0,.57,0Z"/>
      <path class="cls-41" d="m39.4,41.98c0,.97,0,1.94,0,2.9,0,.11.04.22.06.33,0-1.08,0-2.15,0-3.23-.02,0-.05,0-.07,0Z"/>
      <path class="cls-40" d="m61.31,46.55c.27.02.54.06.81.06.41,0,.82-.03,1.22-.05-.68,0-1.36,0-2.04,0Z"/>
      <path class="cls-24" d="m48.99,38.79c-.64,0-1.27,0-1.91,0,.64,0,1.27,0,1.91,0Z"/>
      <path class="cls-37" d="m43.78,84.57c-.26-.02-.51-.05-.77-.05-.43,0-.85,0-1.28,0,.68.01,1.37.03,2.05.04Z"/>
      <path class="cls-17" d="m39.59,50.74c.16,1.05.63,1.95,1.32,2.74.84.96,1.91,1.58,3.07,2.05.52.21,1.03.45,1.56.58.52.13,1,.24,1.28.75.48,1.03.48,2.17.77,3.24.15.53.39,1.04.65,1.54-.66-1.18-.65-2.52-.91-3.79.17.33.33.66.51.98.26.48.52.96.78,1.44,1.03,2.95,3.1,4.73,6.11,5.48.14.04.29.03.44.03.03,0,.06-.08.08-.12.81-.07,1.62-.13,2.43-.2-.07.07-.13.14-.2.21l.04.06c.16-.09.33-.17.48-.26,1.26-.8,2.24-1.89,3.01-3.15.42-.69.71-1.45,1.06-2.18.1-.37.2-.74.3-1.1.26-.61.52-1.22.77-1.83.05.04.09.08.19.16.32-1.03.63-2.02.94-3.02-.04.83-.1,1.66-.12,2.49-.03.92-.17,1.82-.52,2.68-.02.05,0,.11,0,.17-.27.34-.54.68-.82,1.02-.44.24-.76.59-.96,1.05-.62,1.44-1.22,2.9-1.84,4.34-.33.76-.86,1.32-1.64,1.67-1.03.46-1.79,1.29-2.51,2.14-.74.89-1.47,1.78-2.2,2.68-.11.05-.23.08-.33.14-.48.33-.98.6-1.57.65-.07,0-.14-.02-.21-.03,0-.02,0-.06,0-.07-1.1-.45-1.82-1.35-2.59-2.18-.58-.63-1.11-1.3-1.67-1.94-.94-1.07-1.91-2.1-2.81-3.2-.87-1.07-1.69-2.18-2.48-3.31-.48-.68-.86-1.42-1.29-2.14-.09-1.36-.17-2.73-.26-4.09h.09c.33.55.66,1.11.99,1.66.03-.01.05-.03.08-.04-1.09-2.01-2-4.09-2.54-6.31.08-.49.17-.98.25-1.47.08.15.16.31.24.46Zm9.81,12.89c-2.9-1.44-5.18-3.6-7-6.27-.04.04-.08.09-.11.13,1.77,2.73,4.17,4.74,7.11,6.14Z"/>
      <path class="cls-20" d="m53.43,58.84c.1.02.19.04.29.07.4.11.8.26,1.21.32.51.07,1.03.03,1.54.08.86.09,1.53-.31,2.14-.84,1.31-1.13,2.23-2.57,3.07-4.06-.12.04-.24.09-.36.13-.91.94-1.79,1.9-2.86,2.66,0,.03,0,.07,0,.08-.46.42-.96.76-1.62.74-.98-.03-1.92-.27-2.85-.6-.07-.03-.16-.02-.23-.03-.17-.04-.35-.08-.52-.12-.75-.21-1.38-.65-1.97-1.13-.57-.38-1.06-.85-1.39-1.46-.11-.19-.23-.24-.43-.18-.11.03-.24.02-.36.03v-.09c.24-.08.49-.16.74-.23.04-.06.08-.17.13-.17.28-.03.55-.04.83-.05.06,0,.13,0,.19,0,1.43-.28,2.89-.35,4.34-.31,1.62.04,3.24.17,4.85.26.58-.06,1.07.21,1.6.37.06-.02.13-.02.18-.05.07-.04.18-.1.18-.14,0-.08-.07-.19-.13-.22-.24-.12-.49-.26-.76-.31-.82-.18-1.65-.33-2.48-.46-.24-.04-.51.01-.75.06-.85.16-1.67-.07-2.51-.11-.88-.04-1.77,0-2.66.02-.44.01-.88.04-1.33.08-1.36.13-2.72.25-4.06.72.28.12.57.23.84.37.14.07.29.16.4.28,1.17,1.36,2.4,2.64,3.86,3.69.08.06.14.15.22.23.09.04.19.06.27.11.15.09.28.2.42.31Z"/>
      <path class="cls-11" d="m61.33,54.55c.12-.04.24-.09.36-.13.02-.04.05-.08.07-.13-.52-.16-1.02-.43-1.6-.37,0,.02,0,.03,0,.05-.02.19-.04.39-.06.58,0,.35-.09.67-.37.9.06.03.13.07.23.12-1.3.76-2.66,1.1-4.08,1.2-1.23.09-2.44-.09-3.6-.51-.44-.16-.87-.37-1.31-.55.12.12.25.25.37.37.4.27.81.55,1.21.82.32.09.63.17.95.26,1.31.29,2.62.37,3.95.13.25-.04.5-.09.75-.13.43-.34.88-.65,1.28-1.01.54-.48,1.05-1,1.58-1.5.06-.06.18-.06.27-.09Z"/>
      <path class="cls-20" d="m60.35,48.91c.33.95.86,1.79,1.55,2.51.78.81,1.01,1.74.77,2.82-.04.18-.07.37-.1.56.22-.44.49-.86.65-1.32.27-.74.08-1.41-.45-1.99-.06-.07-.12-.14-.19-.21.78.53,1.08,1.37.82,2.24-.1.33-.27.64-.4.95.19-.4.44-.78.57-1.2.23-.7-.06-1.29-.54-1.78-.45-.46-.95-.87-1.42-1.31-.09-.09-.13-.23-.2-.34-.08-.05-.18-.1-.25-.16-.28-.25-.55-.51-.82-.77Z"/>
      <path class="cls-24" d="m48.63,60.27c1.03,2.95,3.1,4.73,6.11,5.48.14.04.29.03.44.03.03,0,.06-.08.08-.12-1.31-.27-2.55-.71-3.63-1.53-1.25-.95-2.12-2.18-2.75-3.6-.05-.1-.16-.17-.25-.26Z"/>
      <path class="cls-24" d="m53.43,58.84c-.14-.1-.27-.22-.42-.31-.08-.05-.18-.07-.27-.11.41.55.99.84,1.6,1.08,1.7.66,3.62.26,4.8-.99.07-.08.14-.17.19-.28-1.85,1.49-3.78,1.99-5.9.6Z"/>
      <path class="cls-24" d="m48.91,50.98c-.1.02-.21.01-.29.06-.87.53-1.33,1.33-1.53,2.3-.15.73-.11,1.45.19,2.14.02,0,.04,0,.06.01,0-.05.03-.09.02-.14-.03-.52-.11-1.05-.08-1.57.02-.35.2-.69.3-1.04.34-.67.74-1.29,1.32-1.78Z"/>
      <path class="cls-24" d="m57.69,65.46c-.07.07-.13.14-.2.21l.04.06c.16-.09.33-.17.48-.26,1.26-.8,2.24-1.89,3.01-3.15.42-.69.71-1.45,1.06-2.18-.02-.02-.05-.05-.07-.07-.07.17-.13.33-.21.5-.44.94-.94,1.84-1.63,2.62-.67.93-1.54,1.64-2.48,2.27Z"/>
      <path class="cls-24" d="m63.16,57.21s.09.08.19.16c.32-1.03.63-2.02.94-3.02.11-.46.22-.91.33-1.37-.03,0-.06-.02-.1-.03-.53,1.39-.96,2.82-1.36,4.26Z"/>
      <path class="cls-24" d="m56.56,51.44c-1.03.51-1.93.31-2.72-.51.28.52.75.74,1.26.87.99.25,2.15-.17,2.76-1,.03-.04,0-.12,0-.18-.1.04-.22.07-.31.13-.34.22-.66.45-.99.68Z"/>
      <path class="cls-38" d="m60.17,63.19c.7-.78,1.19-1.68,1.63-2.62.08-.16.14-.33.21-.5.09-.28.17-.55.26-.83-.14.27-.27.54-.42.8-.53.96-1.06,1.92-1.59,2.88-.04.08-.07.17-.1.26Z"/>
      <path class="cls-24" d="m52.16,50.22c.08.09.14.23.23.26.48.11.93.42,1.46.25.09-.03.22.03.34.01-.21-.33-.6-.35-.91-.51-.38,0-.75,0-1.13-.01Z"/>
      <path class="cls-24" d="m63.01,54.47c.14-.32.3-.63.4-.95.27-.88-.04-1.71-.82-2.24.06.07.12.14.19.21.53.58.72,1.25.45,1.99-.17.46-.43.88-.65,1.32-.04.1-.08.21-.12.31.18-.21.37-.42.55-.63h0Z"/>
      <path class="cls-24" d="m46.83,56.86c.48,1.03.48,2.17.77,3.24.15.53.39,1.04.65,1.54-.66-1.18-.65-2.52-.91-3.79-.17-.33-.34-.66-.51-.98Z"/>
      <path class="cls-24" d="m39.35,50.27c.08.15.16.31.24.46-.02-.26-.05-.52-.07-.79-.19-.55-.37-1.11-.56-1.66-.05-.16-.15-.3-.22-.44-.02.08-.07.17-.05.24.19.63.4,1.25.6,1.88.03.1.04.2.06.31Z"/>
      <path class="cls-24" d="m59.46,49.91c-.24.53-.74.63-1.25.78.16.02.33.04.49.05.09-.03.18-.06.27-.09.88-.34,1.11-1.37.4-2.13.22.51.36.94.08,1.39Z"/>
      <path class="cls-38" d="m47.59,52.76c-.11.35-.28.69-.3,1.04-.03.52.05,1.04.08,1.57,0,.05-.02.09-.02.14.26.19.52.38.85.62-.13-.22-.22-.39-.33-.54-.58-.83-.66-1.71-.3-2.64.02-.06.02-.12.03-.19Z"/>
      <path class="cls-24" d="m60.35,48.91c.27.26.55.52.82.77.07.07.17.11.25.16-.19-.21-.37-.43-.56-.64-.23-.24-.47-.48-.7-.73-.29-.29-.58-.57-.87-.86-.13-.11-.27-.23-.4-.34l-.05.04c.1.14.21.27.31.41.4.39.8.78,1.2,1.17Z"/>
      <path class="cls-1" d="m60.16,48.48c.23.24.47.48.7.73-.27-.56-.54-1.11-.81-1.67l-.08.03c.06.3.13.61.19.91Z"/>
      <path class="cls-24" d="m58.29,48.96c-.11-.51-.31-.98-.66-1.37-.06-.07-.16-.1-.25-.14.2.35.45.69.6,1.07.14.37.18.79.31,1.18v-.74Z"/>
      <path class="cls-24" d="m51.72,49.85c.01-.38.02-.77.04-1.13-.52.32-.28,1.44.25,1.79-.08-.16-.15-.31-.22-.47-.02-.06-.04-.13-.07-.19Z"/>
      <path class="cls-20" d="m63.01,54.47c-.18.21-.37.42-.55.63-.02.11-.04.22-.06.33l.06.03c.19-.33.37-.66.56-1Z"/>
      <path class="cls-5" d="m66.9,52.27c.08-.49.16-.98.24-1.48-.04.11-.11.21-.12.32-.05.39-.08.77-.12,1.16Z"/>
      <path class="cls-24" d="m62.27,59.25c-.09.28-.17.55-.26.83.02.02.05.05.07.07.1-.37.2-.74.3-1.1-.04.07-.08.14-.11.21Z"/>
      <path class="cls-23" d="m28.51,69.63c.02-.33.03-.66.04-.99.03-.08.06-.16.1-.23.53-1.02,1.4-1.63,2.45-1.99.98-.34,1.98-.59,2.96-.91.7-.23,1.38-.53,2.08-.76.25-.09.53-.09.8-.13-.08.17-.19.26-.29.35-1.15,1.02-2.07,2.19-2.69,3.61-.48,1.09-.58,2.21-.42,3.38.03.21.13.33.37.3.03-.4.05-.8.08-1.2.03-.34.03-.68.1-1.01.34-1.71,1.26-3.09,2.49-4.29,1.14-1.11,2.47-1.95,3.8-2.8.02-.01.06,0,.17,0-.12.72-.19,1.44-.37,2.12-.41,1.54-1.3,2.83-2.35,4.01-.39.44-.79.88-1.17,1.3.15.3.29.17.43.08.91,1.66,2.11,3.09,3.47,4.4-.11-.06-.23-.1-.31-.18-1.1-1.14-2.19-2.29-3.28-3.44-.14-.15-.25-.32-.55-.21.1.15.18.28.28.41.87,1.14,1.89,2.14,2.96,3.08,2.36,2.08,5.01,3.7,7.99,4.74.45.16.93.27,1.39.41.64.15,1.28.3,1.92.45-.32.06-.64.11-.95.17,0,.03-.02.07-.03.1.14.04.29.13.42.11,1.1-.2,2.22-.32,3.28-.64,4.63-1.38,8.36-4.03,11.06-8.06.47-.71.83-1.49,1.24-2.24.04-.08.1-.14.15-.22-.33-.34-.68-.67-1-1.03-.69-.78-1.35-1.57-2.03-2.35-.11-.13-.22-.3-.43-.16-.03-.03-.07-.05-.1-.08.04-.32.08-.65.11-.97.11-1.07.21-2.14.32-3.21,0-.03.09-.06.14-.09-.02.05-.04.11-.06.16.07,0,.14.04.21.02.98-.22,1.94-.12,2.86.22,1.92.7,3.72,1.65,5.42,2.8.15.1.25.3.37.45-2.08-1.39-4.35-2.38-6.72-3.13-.47-.15-1.02-.06-1.53-.05-.14,0-.29.11-.43.17,0,.04,0,.08.01.13.19,0,.39.06.56,0,.6-.18,1.2-.21,1.78-.01,1.98.67,3.88,1.51,5.66,2.6.9.55,1.5,1.34,1.37,2.49,0,.04.01.08.04.18.07-.11.11-.17.15-.23.04.13.1.25.13.38.27,1.13.46,2.26.53,3.42.08,1.3.09,2.59-.12,3.88-.24,1.49-1.06,2.69-2.06,3.78-1.24,1.34-2.67,2.48-4.09,3.63-.14.11-.29.25-.45.27-.39.05-.8.04-1.2.06,1.75-.64,3.07-1.87,4.31-3.2.56-.59,1.09-1.21,1.62-1.83.92-1.07,1.32-2.32,1.26-3.72-.04-.95-.15-1.89-.21-2.84-.03-.53-.03-1.06-.04-1.58,0-.17,0-.35,0-.52-.04,0-.08,0-.11-.01-.03.13-.08.26-.07.39.02,1,0,2.01.09,3.01.2,1.95-.1,3.73-1.52,5.19-1.03,1.06-2.05,2.13-3.12,3.16-.79.75-1.75,1.24-2.76,1.65-.12.05-.21.16-.32.24-.05-.02-.1-.05-.15-.05-1.67-.17-3.23-.69-4.71-1.45-1.29-.66-2.62-1.11-4.1-.84-.4.07-.82.12-1.18.3-.38.19-.69.51-1.03.77-1.53-.43-3.09-.56-4.67-.51-1.43.05-2.8.33-4.15.77-.09.03-.17.08-.26.12-.04.02-.07.05-.11.08.18.23.39.2.62.14.94-.23,1.88-.49,2.83-.67,1.11-.2,2.25-.18,3.37-.05.62.07,1.23.16,1.85.25.05,0,.09.04.14.06-.13.09-.25.19-.39.26-1.28.66-2.67.9-4.09.95-2.35.08-4.69-.08-7.04-.35-1.33-.15-2.45-.66-3.43-1.53-.63-.56-1.21-1.18-1.86-1.71-1.37-1.12-2.79-2.18-4.14-3.32-.81-.69-1.58-1.44-2.27-2.25-.47-.55-.78-1.24-1.16-1.87-.02-.68-.11-1.34-.38-1.98.03-.03.08-.05.09-.08Zm7.44-.08c.76-2.27,2.21-4.01,4.18-5.34.08-.06.13-.16.2-.24-.13,0-.3-.06-.39,0-.65.48-1.34.93-1.92,1.49-1.18,1.13-2,2.51-2.51,4.06-.1.29-.17.59-.21.89-.02.12.06.26.09.39l.15-.02c.14-.41.28-.81.41-1.22Zm34.1,3.83c.41-1.02.77-2.06,1.2-3.07.49-1.15.29-2.16-.48-3.09-.19-.24-.4-.46-.6-.7-.02.02-.05.04-.07.06.18.24.38.47.55.71.36.5.68,1.04.61,1.68-.04.37-.16.74-.29,1.09-.73,1.95-1.47,3.89-2.2,5.84-.14.36-.23.74-.35,1.11.03.01.07.03.1.04.51-1.23,1.03-2.45,1.53-3.68Zm-7.22,6.78c-.29.67-.75,1.19-1.73.8-.24-.1-.51-.11-.77-.16-.02.05-.04.09-.05.14.11.06.2.14.32.17.31.08.64.1.95.19.68.2,1.16,0,1.44-.64.11-.26.16-.54.22-.82.02-.09-.02-.19-.03-.28-.04,0-.07,0-.11,0-.08.2-.15.41-.23.61Z"/>
      <path class="cls-24" d="m65.61,82.66c1.75-.64,3.07-1.87,4.31-3.2.56-.59,1.09-1.21,1.62-1.83.92-1.07,1.32-2.32,1.26-3.72-.04-.95-.15-1.89-.21-2.84-.03-.53-.03-1.06-.04-1.58,0-.17,0-.35,0-.52-.04,0-.08,0-.11-.01-.03.13-.08.26-.07.39.02,1,0,2.01.09,3.01.2,1.95-.1,3.73-1.52,5.19-1.03,1.06-2.05,2.13-3.12,3.16-.79.75-1.75,1.24-2.76,1.65-.12.05-.21.16-.32.24.15.17.32.21.53.13.11-.04.22-.05.34-.08Z"/>
      <path class="cls-24" d="m53.56,81.33c-1.53-.43-3.09-.56-4.67-.51-1.43.05-2.8.33-4.15.77-.09.03-.17.08-.26.12-.04.02-.07.05-.11.08.18.23.39.2.62.14.94-.23,1.88-.49,2.83-.67,1.11-.2,2.25-.18,3.37-.05.62.07,1.23.16,1.85.25.05,0,.09.04.14.06.61.14,1.21.29,1.82.43.01-.02.02-.05.03-.07-.49-.18-.98-.36-1.46-.54Z"/>
      <path class="cls-24" d="m56.04,81.85c.11.05.21.13.32.16,1.68.48,3.35.99,5.03,1.43.83.22,1.69.32,2.54.44.84.13,1.63-.09,2.42-.36,0-.03,0-.07.01-.1-.1-.02-.21-.07-.31-.06-.76.08-1.52.27-2.28.24-1.29-.04-2.53-.37-3.76-.77-1.06-.34-2.13-.64-3.2-.95-.24-.07-.5-.08-.74-.12-.01.03-.02.06-.03.09Z"/>
      <path class="cls-24" d="m71.96,65.1c-2.08-1.39-4.35-2.38-6.72-3.13-.47-.15-1.02-.06-1.53-.05-.14,0-.29.11-.43.17,0,.04,0,.08.01.13.19,0,.39.06.56,0,.6-.18,1.2-.21,1.78-.01,1.98.67,3.88,1.51,5.66,2.6.9.55,1.5,1.34,1.37,2.49,0,.04.01.08.04.18.07-.11.11-.17.15-.23.12-.89-.28-1.56-.89-2.14Z"/>
      <path class="cls-4" d="m62.69,65.81s-.07-.05-.1-.08c-.25,1.74-.45,3.5-.89,5.21.44-3.28.87-6.56,1.31-9.85-.03,0-.06-.01-.08-.02-.26.22-.53.44-.79.66-.02-.02-.04-.04-.06-.05.25-.32.5-.65.75-.97-.44.24-.76.59-.96,1.05-.62,1.44-1.22,2.9-1.84,4.34-.33.76-.86,1.32-1.64,1.67-1.03.46-1.79,1.29-2.51,2.14-.74.89-1.47,1.78-2.2,2.68-.15.13-.29.28-.44.4-.4.32-.83.61-1.36.6-1.03-.02-1.69-.67-2.29-1.4.23.14.42.32.62.5.4.34.8.67,1.36.67,0-.02,0-.06,0-.07-1.1-.45-1.82-1.35-2.59-2.18-.58-.63-1.11-1.3-1.67-1.94-.94-1.07-1.91-2.1-2.81-3.2-.87-1.07-1.69-2.18-2.48-3.31-.48-.68-.86-1.42-1.29-2.14,0,.81.01,1.63-.02,2.44-.02.64-.01,1.29-.16,1.9-.53,2.22-1.88,3.95-3.42,5.56-.01.02-.03.03-.04.05.91,1.66,2.11,3.09,3.47,4.4.31.26.61.54.94.78,2.2,1.68,4.63,2.92,7.22,3.86.11.04.21.12.31.18.64.15,1.28.3,1.92.45.17-.02.34-.04.5-.07,5.48-1.16,9.84-4.03,13.03-8.64.48-.69.9-1.42,1.34-2.12-1.68-1.55-2.6-2.58-3.15-3.49Z"/>
      <path class="cls-2" d="m28.42,69.72s.08-.05.09-.08c.02-.33.03-.66.04-.99-.07.26-.16.52-.21.78-.02.09.05.19.08.29Z"/>
      <path class="cls-17" d="m33.81,42.04c-.41.15-.55.36-.57.83-.06,1.17.34,2.23.76,3.29.05.13.1.25.16.38.01.03.04.05.05.06.06-.47.09-.94.18-1.41.06-.29.18-.58.31-.85.16-.35.5-.43.84-.47-.4-.77-.8-1.56-1.73-1.82Z"/>
      <path class="cls-17" d="m36.61,45.14c-.3-.03-.53.08-.64.36-.14.33-.27.66-.35,1-.18.75.1,2.27.5,2.88.07-.56.12-1.14.22-1.71.09-.51.35-.92.83-1.16.07-.03.13-.11.19-.16-.25-.4-.49-.81-.74-1.21Z"/>
      <path class="cls-24" d="m36.61,45.14c.25.4.49.81.74,1.21.19.38.39.76.58,1.14.02,0,.04-.01.06-.02-.01-.06-.02-.13-.04-.18-.34-.67-.68-1.34-1.04-2.01-.05-.1-.16-.16-.24-.24l-.06.1Z"/>
      <path class="cls-24" d="m33.81,42.04c.94.27,1.33,1.05,1.73,1.82.03.02.05.04.08.05.02,0,.04,0,.09,0-.34-.7-.74-1.33-1.36-1.8-.15-.11-.33-.27-.55-.09Z"/>
      <path class="cls-31" d="m45.02,22.16c-.77.03-1.44.33-2,.86.67-.29,1.33-.57,2-.86Z"/>
      <path class="cls-24" d="m65.85,30.62c.06.45.13.89.19,1.34.04,0,.08-.01.11-.02-.07-.45-.15-.89-.22-1.34-.03,0-.05,0-.08.01Z"/>
      <path class="cls-2" d="m65.19,33.9c-.53-.36-1.08-.43-1.62-.5-.75-.09-1.51-.16-2.26-.2-1.25-.06-2.51-.11-3.77-.12-.96-.01-1.92.02-2.88.06-1.02.04-2.04.1-3.06.19-1.77.14-3.54.29-5.28.7-.27.06-.54.17-.8.25.06.55-.09.99-.53,1.53.1-.05.14-.06.18-.09.64-.56,1.44-.61,2.22-.68,1.38-.12,2.72.15,4.06.46,1.55.36,3.1.7,4.72.62,1.02-.05,1.97-.35,2.88-.77.69-.32,1.36-.68,2.07-.97,1.22-.5,2.5-.66,3.81-.49.06,0,.13,0,.27,0Z"/>
      <path class="cls-24" d="m47.15,36.37c-1.13.06-2.16.41-3.12.99-.36.22-.68.48-1.03.72-.18.12-.13.26-.04.41.12,0,.25.05.36.02.4-.1.79-.22,1.18-.35,1.71-.59,3.47-.76,5.26-.55.13.01.25.04.37.06.12.02.24.05.36.08-2.18-.18-4.33-.17-6.38.77.06.01.11.02.17.03,0,0,0,0,0,0,.68-.17,1.36-.33,2.04-.5.8-.21,1.62-.22,2.44-.19.4.02.79.11,1.19.11.42,0,.84-.02,1.25-.1.15-.03.26-.28.37-.44.02-.02-.1-.13-.15-.2-.06.07-.13.13-.19.2-.69-.48-1.42-.81-2.21-.94-.61-.1-1.24-.08-1.86-.11Z"/>
      <path class="cls-24" d="m65.37,37.27c.21.15.43.3.64.45.19-.25.09-.45-.06-.66-.53-.74-1.3-1.15-2.16-1.34-1.64-.37-3.13.03-4.11,1.43-.11.16-.22.34-.28.53-.04.12.03.28.06.42.28.19.41-.09.59-.2,1.18-.67,2.43-1.1,3.79-.99.51.04,1.01.23,1.52.35Z"/>
      <path class="cls-20" d="m65.37,37.27c-.5-.12-1-.31-1.52-.35-1.37-.11-2.62.32-3.79.99-.19.11-.31.39-.59.2-.03.11-.05.22-.09.39,1.92-.86,3.94-1.13,5.99-1.22Z"/>
      <path class="cls-40" d="m44.29,38.53c-.06-.01-.11-.02-.17-.03,2.05-.94,4.2-.94,6.38-.77-.12-.03-.24-.06-.36-.08-.12-.02-.25-.04-.37-.06-1.8-.21-3.55-.04-5.26.55-.39.13-.78.25-1.18.35-.11.03-.24-.01-.36-.02-.05.09-.1.18-.18.34.54-.1,1.03-.19,1.51-.29Z"/>
      <path class="cls-21" d="m47.15,36.37c.62.03,1.25.02,1.86.11.8.13,1.53.46,2.21.94.07-.07.13-.14.19-.2-.94-.59-1.95-.99-3.09-.97-.31,0-.61,0-.92,0-.09,0-.17.07-.26.11Z"/>
      <path class="cls-40" d="m46.32,38.04c-.68.17-1.36.33-2.04.5.6-.14,1.2-.28,1.8-.42.08-.02.15-.05.23-.08Z"/>
      <path class="cls-13" d="m53.55,39.18c.46.02.91.05,1.37.05.31,0,.62-.03.93-.05-.77,0-1.53,0-2.3,0Z"/>
      <path class="cls-13" d="m41.56,39.37c.53,0,1.07,0,1.6,0-.53,0-1.07,0-1.6,0Z"/>
      <path class="cls-17" d="m49.43,43.57c-.58,0-1.15.03-1.72,0-1.02-.04-2.03-.22-2.99.04.41.26.85.52,1.28.8.55.35,1.15.54,1.81.55,1.16.02,2.24-.21,3.19-.89.51-.36.92-.8,1.09-1.41-.78.61-1.69.85-2.66.91Z"/>
      <path class="cls-24" d="m50.64,41.97c.13.1.28.19.39.31.05.05.07.17.04.23-.03.05-.14.09-.21.08-.8-.08-1.6-.1-2.39.11-.11.03-.24.06-.34.03-.16-.06-.29-.17-.44-.26.09-.11.18-.21.27-.32.85-.7,1.75-.59,2.68-.18Zm-1.99.32c-.01-.07-.02-.15-.03-.22-.15.03-.31.06-.46.08,0,.06.02.12.03.18.16-.01.31-.03.47-.04Z"/>
      <path class="cls-20" d="m48.46,40.75h2.45c-.37-.12-.73-.28-1.11-.36-1.42-.3-2.71.07-3.93.79-.47.28-.92.6-1.38.9-.07.04-.13.1-.16.2.54-.23,1.07-.46,1.61-.69.97-.7,2.06-1.02,3.25-1.02-.25.06-.49.12-.74.19Z"/>
      <path class="cls-1" d="m47.96,42.14c.85-.7,1.75-.59,2.68-.18.16-.04.33-.08.49-.12-.25-.15-.48-.35-.74-.44-.59-.2-1.2-.19-1.81-.07-.85.16-1.65.47-2.37.96.25,0,.5,0,.76,0,.02-.02.04-.03.06-.05.32-.03.63-.06.95-.09Z"/>
      <path class="cls-24" d="m46.21,42.29c.72-.49,1.52-.79,2.37-.96.61-.12,1.22-.12,1.81.07.27.09.5.29.74.44.11.14.22.27.34.41.02-.02.05-.04.07-.06-.09-.28-.16-.54-.5-.7-1.21-.6-2.44-.52-3.64-.07-.75.28-1.46.7-2.18,1.07-.06.03-.11.09-.15.18.45.1.74-.32,1.13-.37Z"/>
      <path class="cls-24" d="m48.46,40.75c.25-.06.49-.12.74-.19-1.19,0-2.28.32-3.25,1.02.1,0,.2,0,.29-.02.74-.27,1.48-.54,2.22-.82Z"/>
      <path class="cls-24" d="m49.43,43.57c.97-.06,1.88-.3,2.66-.91-.08-.02-.19-.07-.24-.04-.81.45-1.67.74-2.57.93.05,0,.1.02.15.02Z"/>
      <path class="cls-24" d="m45.11,42.69c-.44.08-.79.15-1.11.21.24.17.77.2,1.11-.21Z"/>
      <path class="cls-24" d="m47.02,42.23s-.04.03-.06.05c-.13.16-.05.28.11.29.12,0,.23-.11.35-.17-.09-.06-.18-.12-.28-.17-.03-.02-.08,0-.12.01Z"/>
      <path class="cls-24" d="m44.07,43.49c.3.1.41-.17.59-.33-.29-.09-.41.18-.59.33Z"/>
      <path class="cls-26" d="m49.88,39.73c-.61,0-1.23,0-1.84,0,.61,0,1.23,0,1.84,0Z"/>
      <path class="cls-17" d="m61.36,43.49c-.8-.14-1.61-.28-2.41-.42-.06-.01-.12-.02-.23.03.12.13.22.29.36.4.79.62,1.68.94,2.71.96.96.01,1.84-.18,2.63-.72.27-.18.5-.41.57-.79-.21.08-.39.14-.57.21.24.08,0,.11-.02.12-.59.14-1.18.33-1.77.39-.41.04-.84-.11-1.26-.17Z"/>
      <path class="cls-20" d="m59.12,41.57c.79-1.06,1.73-1.78,3.13-1.63,1.26.13,2.44.4,3.21,1.51,0-.28-.23-.76-.51-1-.7-.6-1.51-.91-2.43-1.03-1.31-.18-2.2.44-2.95,1.39-.17.22-.35.44-.52.66.03.03.05.07.08.1Z"/>
      <path class="cls-24" d="m61.01,41.51c.99-.39,1.99-.46,2.97.05.09.04.15.14.22.21-.64-.38-1.32-.44-2.05-.27.1.01.2.02.3.03.36.04.73.07,1.09.13.37.07.65.28.82.63-.1.01-.2.03-.29.03-.68-.01-1.36-.04-2.04-.05-.42,0-.87.14-1.21-.25.06-.18.08-.47.2-.51Zm.95.19c-.15,0-.31.02-.46.02-.01.04-.02.08-.03.12.13.07.26.13.5.25v-.4Z"/>
      <path class="cls-20" d="m60.81,42.02c.06-.18.08-.47.2-.51.99-.39,1.99-.46,2.97.05.09.04.15.14.22.21.07.03.14.07.22.1.27.14.55.28.82.42-1.35-1.58-3.22-1.94-5.08-.84-.3.17-.57.38-.92.62.17.01.26.02.35.03.16-.22.6-.32.79-.16.07.06.08.19.11.29.11-.06.22-.13.33-.19Z"/>
      <path class="cls-24" d="m66.69,40.78s-.05-.07-.07-.1c-.07.08-.18.16-.2.25-.32,1.27-.1,2.45.57,3.57-.42-.91-.48-1.87-.39-2.86.03-.29.06-.57.09-.86Z"/>
      <path class="cls-24" d="m59.5,41.53c1-.78,2.13-1.12,3.43-1.06-.76-.46-2.89.19-3.43,1.06Z"/>
      <path class="cls-24" d="m61.36,43.49c.42.06.85.21,1.26.17.6-.06,1.18-.25,1.77-.39.02,0,.26-.03.02-.12-.8.2-1.6.37-2.43.33-.21,0-.42,0-.63,0Z"/>
      <path class="cls-28" d="m64.42,41.87c-.07-.03-.14-.07-.22-.1-.64-.38-1.32-.44-2.05-.27.1.01.2.02.3.03.36.04.73.07,1.09.13.37.07.65.28.82.63.19.02.37.04.56.06-.16-.16-.49-.15-.5-.48Z"/>
      <path class="cls-24" d="m60.48,42.22c-.04-.1-.04-.23-.11-.29-.2-.16-.63-.06-.79.16.27.3.59.18.91.12Z"/>
      <path class="cls-24" d="m64.42,41.87c.01.32.34.31.5.48.22.09.45.18.67.27l.03-.07c-.13-.09-.26-.17-.39-.26-.27-.14-.55-.28-.82-.42Z"/>
      <path class="cls-24" d="m42.29,57.49c1.77,2.73,4.17,4.74,7.11,6.14-2.9-1.44-5.18-3.6-7-6.27-.04.04-.08.09-.11.13Z"/>
      <path class="cls-24" d="m51.58,73.35c-.56,0-.96-.33-1.36-.67-.2-.17-.4-.36-.62-.5.6.72,1.27,1.38,2.29,1.4.53,0,.96-.28,1.36-.6.15-.13.29-.27.44-.4-.11.05-.23.08-.33.14-.48.33-.98.6-1.57.65-.07,0-.14-.02-.21-.03Z"/>
      <path class="cls-24" d="m60.16,53.96s0-.03,0-.05c-1.62-.09-3.23-.22-4.85-.26-1.45-.04-2.9.04-4.34.31-.06.01-.13,0-.19,0-.32.08-.64.15-.96.23-.25.08-.5.16-.75.23v.09c.13,0,.26,0,.37-.03.21-.06.33-.02.43.18.34.61.82,1.08,1.39,1.46.02-.02.05-.05.07-.07-.12-.12-.25-.25-.37-.37-.05-.05-.09-.09-.14-.14-.24-.29-.47-.58-.71-.88-.06-.07-.13-.15-.23-.27,1.41-.37,2.78-.5,4.16-.57.21-.02.41-.06.62-.05.52,0,1.04.03,1.56.05.72.03,1.44.05,2.17.08.45.02.9.04,1.35.05.14,0,.27,0,.41,0Z"/>
      <path class="cls-23" d="m58.19,57.14c-.25.04-.5.09-.75.13-1.33.24-2.64.16-3.95-.13,0,.03-.02.08,0,.09.09.06.18.11.27.16.08.01.16,0,.23.03.92.33,1.86.57,2.85.6.65.02,1.16-.32,1.62-.74.01-.01,0-.05,0-.08-.46.18-.9.39-1.37.53-.49.14-1.07.05-1.3-.13,1.12.12,1.61.02,2.41-.47Z"/>
      <path class="cls-24" d="m58.19,57.14c-.8.49-1.29.59-2.41.47.24.18.82.28,1.3.13.47-.14.92-.35,1.37-.53,1.07-.76,1.95-1.73,2.86-2.66-.09.03-.2.03-.27.09-.53.5-1.04,1.02-1.58,1.5-.41.36-.85.68-1.28,1.01Z"/>
      <path class="cls-24" d="m51.34,56.07s-.05.05-.07.07c.6.48,1.22.92,1.97,1.13-.23-.13-.46-.26-.69-.38-.4-.27-.81-.55-1.21-.82Z"/>
      <path class="cls-39" d="m52.55,56.89c.23.13.46.26.69.38.17.04.35.08.52.12-.09-.05-.18-.1-.27-.16-.01,0,0-.06,0-.09-.32-.09-.63-.17-.95-.26Z"/>
      <path class="cls-7" d="m49.82,54.2c.32-.08.64-.15.96-.23-.28.02-.55.02-.83.05-.05,0-.09.11-.13.17Z"/>
      <path class="cls-19" d="m60.16,53.96c-.14,0-.27.01-.41,0-.45-.02-.9-.04-1.35-.05-.72-.03-1.44-.06-2.17-.08-.72,0-1.45,0-2.17,0-1.38.07-2.76.2-4.16.57.1.12.16.19.23.27.12.01.24,0,.34.04,1.2.42,2.43.68,3.69.77,1.29.09,2.59.01,3.85-.34.7-.19,1.39-.4,2.09-.6.02-.19.04-.39.06-.58Z"/>
      <path class="cls-43" d="m60.09,54.54c-.7.2-1.39.41-2.09.6-1.26.35-2.55.43-3.85.34-1.26-.09-2.49-.35-3.69-.77-.11-.04-.23-.03-.34-.04.24.29.47.58.71.88.18.07.36.12.53.2,1.58.71,3.22,1.04,4.96.81,1.21-.16,2.36-.49,3.41-1.12.29-.23.38-.54.37-.9Z"/>
      <path class="cls-24" d="m59.72,55.44c-1.05.63-2.2.97-3.41,1.12-1.73.22-3.37-.1-4.96-.81-.17-.08-.35-.13-.53-.2.05.05.09.09.14.14.43.19.86.39,1.31.55,1.16.42,2.37.6,3.6.51,1.42-.1,2.78-.44,4.08-1.2-.1-.05-.17-.09-.23-.12Z"/>
      <path class="cls-24" d="m62.69,65.81c.55.91,1.47,1.94,3.15,3.49-.44.7-.86,1.43-1.34,2.12-3.19,4.61-7.55,7.48-13.03,8.64-.16.03-.33.05-.5.07-.32.06-.64.11-.95.17,0,.03-.02.07-.03.1.14.04.29.13.42.11,1.1-.2,2.22-.32,3.28-.64,4.63-1.38,8.36-4.03,11.06-8.06.47-.71.83-1.49,1.24-2.24.04-.08.1-.14.15-.22-.33-.34-.68-.67-1-1.03-.69-.78-1.35-1.57-2.03-2.35-.11-.13-.22-.3-.43-.16Z"/>
      <path class="cls-24" d="m49.05,79.68c-.1-.06-.2-.14-.31-.18-2.59-.94-5.02-2.18-7.22-3.86-.32-.25-.63-.52-.94-.78-.11-.06-.23-.1-.31-.18-1.1-1.14-2.19-2.29-3.28-3.44-.14-.15-.25-.32-.55-.21.1.15.18.28.28.41.87,1.14,1.89,2.14,2.96,3.08,2.36,2.08,5.01,3.7,7.99,4.74.45.16.93.27,1.39.41Z"/>
      <path class="cls-24" d="m35.53,70.77c.14-.41.28-.81.41-1.22.76-2.27,2.21-4.01,4.18-5.34.08-.06.13-.16.2-.24-.13,0-.3-.06-.39,0-.65.48-1.34.93-1.92,1.49-1.18,1.13-2,2.51-2.51,4.06-.1.29-.17.59-.21.89-.02.12.06.26.09.39l.15-.02Z"/>
      <path class="cls-24" d="m68.52,77.06c.51-1.23,1.03-2.45,1.53-3.68.41-1.02.77-2.06,1.2-3.07.49-1.15.29-2.16-.48-3.09-.19-.24-.4-.46-.6-.7-.02.02-.05.04-.07.06.18.24.38.47.55.71.36.5.68,1.04.61,1.68-.04.37-.16.74-.29,1.09-.73,1.95-1.47,3.89-2.2,5.84-.14.36-.23.74-.35,1.11.03.01.07.03.1.04Z"/>
      <path class="cls-24" d="m63.07,79.55c-.08.2-.15.41-.23.61-.29.67-.75,1.19-1.73.8-.24-.1-.51-.11-.77-.16-.02.05-.04.09-.05.14.11.06.2.14.32.17.31.08.64.1.95.19.68.2,1.16,0,1.44-.64.11-.26.16-.54.22-.82.02-.09-.02-.19-.03-.28-.04,0-.07,0-.11,0Z"/>
      <path class="cls-29" d="m48.18,42.33c.16-.01.31-.03.47-.04-.01-.07-.02-.15-.03-.22-.15.03-.31.06-.46.08,0,.06.02.12.03.18Z"/>
      <path class="cls-36" d="m61.96,42.1v-.4c-.15,0-.31.02-.46.02-.01.04-.02.08-.03.12.13.07.26.13.5.25Z"/>
      <path class="cls-27" d="m54.06,53.84c.72,0,1.45,0,2.17,0-.52-.02-1.04-.04-1.56-.05-.21,0-.41.03-.62.05Z"/>
    </g>
    <polyline class="cls-42" points="42.14 43.67 42.29 46.55 43.59 47.07 52.74 47.21 54.06 45.44 54.61 44.32 55.15 41.96 57.38 42.19 57.64 44.77 57.64 46.27 59.95 46.27 60.17 47.21 62.76 46.79 61.04 40.29 56.8 39.85 52.74 40.13"/>
    <image width="960" height="640" transform="translate(36.57 27.6) rotate(-1.25) scale(.04 .05)" xlink:href="../../../Downloads/pngwing.com (47).png"/>
  </g>
</svg>